<svg width="390" height="769" viewBox="0 0 390 769" fill="none" xmlns="http://www.w3.org/2000/svg">
<mask id="mask0_4552_22508" style="mask-type:alpha" maskUnits="userSpaceOnUse" x="0" y="0" width="390" height="769">
<rect width="390" height="769" fill="#10172B"/>
</mask>
<g mask="url(#mask0_4552_22508)">
<path opacity="0.1" d="M2347.69 -643.615C2347.69 -643.615 2347.51 -643.347 2347.38 -643.195L2343.6 -646.581C2343.3 -646.26 2343 -645.939 2342.74 -645.636L2339.79 -649.472C2339.24 -649.046 2338.7 -648.62 2338.13 -648.235L2336.12 -652.138C2335.28 -651.728 2334.49 -651.295 2333.64 -650.886L2332.5 -654.582C2331.42 -654.264 2330.36 -653.907 2329.28 -653.589L2328.83 -656.81C2327.55 -656.603 2326.28 -656.396 2325.01 -656.188L2324.96 -658.812C2323.56 -658.79 2322.17 -658.728 2320.77 -658.706L2320.98 -660.719C2319.51 -660.861 2318.02 -660.944 2316.55 -661.085L2316.84 -662.557C2315.32 -662.82 2313.8 -663.083 2312.28 -663.347L2312.56 -664.383C2010.29 -743.174 1796.85 -722.625 1646.57 -658.373C1492.06 -592.312 1405.04 -480.263 1356.93 -385.09C1354.6 -380.436 1352.37 -375.875 1350.2 -371.291C1271.62 -384.784 1198.47 -385.926 1135 -381.013C996.8 -370.361 904.074 -331.341 899.02 -329.18L898.815 -329.092C898.404 -328.917 805.872 -288.873 701.608 -206.584C649.496 -165.448 594.43 -113.718 546.501 -51.0899C528.487 -27.515 511.491 -2.35509 496.017 24.3185C481.515 41.1011 467.63 58.5333 454.68 76.6724C438.447 91.4532 422.886 106.668 408.278 122.294C389.454 134.767 371.445 147.325 354.414 159.898C332.419 168.821 311.271 177.334 291.379 185.262L289.981 185.859C278.632 187.393 267.412 188.775 256.492 189.836L253.919 190.07L252.03 191.792L251.948 191.827C251.501 192.259 249.336 194.243 245.301 197.651C237.254 196.907 229.238 196.005 221.334 194.912L219.056 194.587L216.954 195.582C216.954 195.582 210.812 198.496 198.769 204.319C194.375 203.023 190.005 201.669 185.658 200.256L184.014 199.709L182.303 199.911C182.303 199.911 171.118 201.375 150.397 206.001C150.146 205.868 149.871 205.793 149.619 205.66L148.591 205.186L147.46 205.044C147.045 204.981 126.038 201.89 88.7507 203.691C72.084 199.61 47.1242 194.889 15.4317 192.951C-44.4748 189.368 -128.198 196.016 -223.369 236.707C-343.031 287.869 -480.555 392.748 -611.952 597.557L-599.06 605.657C-599.06 605.657 -598.883 605.389 -598.753 605.237L-594.973 608.623C-594.672 608.302 -594.372 607.981 -594.113 607.678L-591.16 611.514C-590.613 611.088 -590.066 610.662 -589.502 610.276L-587.493 614.179C-586.648 613.77 -585.861 613.337 -585.015 612.927L-583.872 616.623C-582.793 616.306 -581.731 615.948 -580.651 615.631L-580.198 618.852C-578.925 618.645 -577.653 618.438 -576.381 618.23L-576.328 620.854C-574.928 620.832 -573.545 620.77 -572.145 620.748L-572.353 622.761C-570.883 622.903 -569.39 622.985 -567.92 623.127L-568.214 624.599C-566.692 624.862 -565.17 625.125 -563.648 625.388L-563.934 626.425C-261.703 705.332 -48.2266 684.766 102.05 620.514C256.559 554.453 343.579 442.403 391.688 347.231C394.024 342.577 396.254 338.016 398.425 333.432C476.987 346.884 550.14 348.026 613.624 343.153C751.823 332.502 844.548 293.482 849.603 291.321L849.767 291.251C850.219 291.057 942.751 251.014 1046.97 168.742C1099.09 127.607 1154.15 75.8761 1202.08 13.2484C1220.09 -10.3266 1237.11 -35.4459 1252.56 -62.1602C1267.07 -78.9427 1280.95 -96.3749 1293.9 -114.514C1310.13 -129.295 1325.7 -144.51 1340.3 -160.135C1359.13 -172.609 1377.14 -185.167 1394.17 -197.74C1416.16 -206.662 1437.31 -215.175 1457.2 -223.103L1458.6 -223.701C1469.95 -225.234 1481.17 -226.616 1492.09 -227.678L1494.66 -227.912L1496.59 -229.651L1496.68 -229.686C1497.12 -230.118 1499.29 -232.102 1503.32 -235.51C1511.37 -234.766 1519.39 -233.865 1527.29 -232.771L1529.57 -232.446L1531.67 -233.441C1531.67 -233.441 1537.81 -236.355 1549.85 -242.178C1554.25 -240.882 1558.62 -239.528 1562.96 -238.115L1564.59 -237.608L1566.3 -237.811C1566.3 -237.811 1577.49 -239.274 1598.21 -243.901C1598.46 -243.768 1598.75 -243.652 1598.99 -243.56L1600.01 -243.086L1601.15 -242.944C1601.56 -242.881 1622.57 -239.79 1659.86 -241.591C1676.52 -237.51 1701.48 -232.789 1733.17 -230.851C1793.08 -227.268 1876.8 -233.916 1971.97 -274.607C2091.64 -325.769 2229.16 -430.648 2360.56 -635.457L2347.67 -643.557L2347.69 -643.615ZM1661.46 -256.946C1658.96 -257.561 1656.7 -258.182 1654.66 -258.752C1695.65 -270.749 1750.08 -289.306 1816.2 -317.575C1940.59 -370.758 2106.19 -458.396 2301.16 -601.594C2154.46 -451.429 2017.56 -366.009 1904.56 -317.692C1813.58 -278.793 1738.08 -263.927 1685.41 -258.772C1676.79 -257.921 1668.82 -257.351 1661.4 -256.969L1661.46 -256.946ZM1536.44 -261.84C1538.69 -263.522 1541.04 -265.297 1543.47 -267.107C1547.75 -265.52 1552 -263.875 1556.27 -262.189C1553.53 -260.872 1550.95 -259.625 1548.58 -258.467C1544.53 -259.624 1540.49 -260.781 1536.44 -261.84ZM850.07 209.881L849.865 209.968C844.851 212.112 753.211 250.716 621.147 268.894C561.748 277.07 494.184 281.042 422.65 275.84C426.193 266.052 429.282 256.795 431.96 248.051C503.285 246.511 571.513 237.157 631.803 225.04C761.519 198.871 854.433 159.723 861.707 156.613L862.118 156.437C862.365 156.332 954.345 116.476 1065.84 50.1907C1120 17.9426 1178.74 -20.5425 1233.84 -63.7752C1225.92 -54.905 1217.85 -46.1623 1209.57 -37.6692C1132.61 41.51 1042.61 103.51 971.908 145.619C936.546 166.702 906.041 182.775 884.366 193.582C873.55 198.976 864.912 203.102 859.024 205.812C856.059 207.176 853.816 208.183 852.271 208.891C851.491 209.225 850.915 209.471 850.545 209.629C850.176 209.787 849.97 209.875 849.97 209.875L850.07 209.881ZM87.3729 218.998C89.8718 219.614 92.1303 220.235 94.1724 220.805C53.1757 232.802 -1.25047 251.359 -67.3278 279.61C-191.716 332.793 -357.316 420.432 -552.288 563.629C-405.595 413.464 -268.695 328.044 -155.69 279.728C-64.7102 240.829 10.7844 225.963 63.455 220.807C72.083 219.956 80.0534 219.386 87.4723 219.004L87.3729 218.998ZM212.387 223.893C210.141 225.575 207.79 227.35 205.356 229.16C201.08 227.573 196.829 225.928 192.56 224.242C195.302 222.925 197.879 221.678 200.252 220.52C204.295 221.677 208.338 222.835 212.387 223.893ZM895.744 -254.764L898.882 -247.881L898.964 -247.915C903.977 -250.059 995.618 -288.663 1127.68 -306.841C1187.08 -315.017 1254.64 -318.989 1326.18 -313.787C1322.64 -303.999 1319.55 -294.742 1316.87 -285.998C1245.54 -284.458 1177.32 -275.104 1117.03 -262.987C987.309 -236.819 894.395 -197.67 887.122 -194.56L886.669 -194.367C886.464 -194.279 794.466 -154.464 682.988 -88.1377C628.827 -55.8897 570.09 -17.4045 514.986 25.8281C522.908 16.9579 530.981 8.21523 539.258 -0.277894C616.223 -79.4571 706.221 -141.457 776.92 -183.566C812.282 -204.649 842.787 -220.722 864.462 -231.529C875.279 -236.923 883.916 -241.049 889.805 -243.759C892.77 -245.123 895.013 -246.13 896.557 -246.838C897.338 -247.172 897.913 -247.418 898.283 -247.576C898.653 -247.734 898.858 -247.822 898.858 -247.822L895.885 -254.776L895.744 -254.764ZM1632.76 -268.245C1628.25 -270.838 1623.78 -273.448 1619.26 -275.942C1733.42 -331.678 1958.23 -442.61 2287.24 -610.168C2095.34 -469.777 1932.46 -383.734 1810.21 -331.465C1734.6 -299.137 1674.56 -279.721 1632.7 -268.268L1632.76 -268.245ZM1574.77 -271.107C1569.26 -273.418 1563.73 -275.67 1558.19 -277.823C1561.5 -280.2 1564.95 -282.688 1568.59 -285.206C1574.37 -282.384 1580.16 -279.522 1585.96 -276.52C1582.87 -275.005 1579.88 -273.582 1577.03 -272.172C1576.25 -271.838 1575.55 -271.441 1574.82 -271.084L1574.77 -271.107ZM856.172 142.529L855.802 142.688C849.186 145.516 757.111 184.354 628.896 210.169C570.646 221.943 504.981 230.923 436.513 232.78C439.229 223.105 441.467 214.356 443.213 206.731C512.06 197.69 579.217 182.877 639.104 166.747C764.187 133.037 857.412 93.7066 867.398 89.4372C867.973 89.1912 868.261 89.0683 868.261 89.0683C868.384 89.0156 960.077 49.2827 1075.16 -9.06163C1134.11 -38.9795 1199.15 -73.7603 1261.22 -110.592C1259.81 -107.732 1258.41 -104.871 1256.95 -102.035C1193.78 -48.5702 1122.68 -1.14366 1058.07 37.2539C1002.77 70.1334 952.223 96.5079 915.551 114.64C897.206 123.686 882.327 130.721 872.053 135.451C866.886 137.804 862.935 139.59 860.199 140.808C857.504 142.008 856.107 142.605 856.107 142.605L856.172 142.529ZM116.045 230.356C120.556 232.949 125.026 235.559 129.543 238.053C15.3844 293.789 -209.422 404.721 -538.431 572.279C-346.554 431.848 -183.697 345.863 -61.446 293.594C14.1648 261.266 74.2015 241.85 116.063 230.397L116.045 230.356ZM17.882 309.749C70.6088 283.694 113.293 262.798 145.865 246.9C152.592 250.469 159.267 253.916 165.972 257.206C88.1709 310.672 -44.5569 390.846 -241.392 475.004C-323.454 510.09 -416.692 545.866 -521.72 580.67C-287.572 461.463 -106.903 371.326 17.8235 309.725L17.882 309.749ZM174.039 233.218C179.547 235.529 185.12 237.764 190.618 239.935C187.308 242.312 183.852 244.8 180.213 247.317C174.438 244.495 168.645 241.633 162.842 238.631C165.936 237.116 168.925 235.694 171.773 234.283C172.554 233.95 173.259 233.552 173.981 233.195L174.039 233.218ZM889.66 -187.372L892.715 -180.453L892.756 -180.471L893.003 -180.576C899.619 -183.405 991.694 -222.243 1119.91 -248.058C1178.16 -259.832 1243.82 -268.812 1312.29 -270.669C1309.58 -260.994 1307.34 -252.245 1305.59 -244.62C1236.74 -235.578 1169.59 -220.766 1109.7 -204.636C984.618 -170.925 891.392 -131.595 881.407 -127.326C880.873 -127.098 880.585 -126.975 880.544 -126.957C880.544 -126.957 788.729 -87.1717 673.644 -28.8274C614.694 1.09047 549.658 35.8715 487.59 72.7028C488.991 69.8427 490.411 67.0234 491.854 64.1457C555.025 10.6814 626.125 -36.7452 690.732 -75.1427C746.033 -108.022 796.582 -134.397 833.254 -152.529C851.599 -161.575 866.478 -168.61 876.753 -173.34C881.919 -175.693 885.87 -177.479 888.606 -178.696C891.301 -179.897 892.698 -180.494 892.698 -180.494L889.725 -187.448L889.66 -187.372ZM1500.54 -330.808C1502.48 -332.984 1504.37 -335.141 1506.39 -337.352C1564.61 -401.155 1658.52 -479.691 1802.76 -541.36C1912.72 -588.376 2052.01 -625.566 2227.13 -638.774C2083.1 -610.045 1962.71 -571.031 1863.19 -528.478C1699.39 -458.446 1591.99 -378.951 1527.56 -320.237C1518.54 -323.933 1509.56 -327.449 1500.6 -330.785L1500.54 -330.808ZM1869.09 -514.553C1972.24 -558.652 2098.18 -598.985 2250.23 -627.824C2151.12 -594.538 2062.62 -560.404 1984.22 -526.882C1780.39 -439.737 1644.72 -356.67 1567.17 -302.733C1559.06 -306.578 1550.99 -310.242 1542.92 -313.767C1606.7 -370.909 1711.34 -447.103 1869.13 -514.57L1869.09 -514.553ZM1796.75 -555.291C1648.04 -491.707 1551.57 -410.156 1492.25 -344.389C1489.78 -341.648 1487.51 -338.995 1485.14 -336.347C1475.49 -339.722 1465.93 -342.853 1456.39 -345.844C1457.88 -347.925 1459.39 -349.965 1460.88 -352.046C1514.82 -424.841 1604.4 -512.253 1748.64 -573.922C1862.14 -622.449 2009.57 -655.038 2200.32 -651.795C2035.59 -636.919 1902.84 -600.697 1796.69 -555.314L1796.75 -555.291ZM1474.57 -323.892C1470.05 -318.446 1465.8 -313.164 1461.81 -308.046C1452.86 -310.23 1443.91 -312.176 1435.01 -314C1438.84 -320.06 1442.87 -326.307 1447.24 -332.695C1456.29 -329.929 1465.42 -327.001 1474.55 -323.834L1474.57 -323.892ZM1451.79 -294.766C1448 -289.636 1444.49 -284.67 1441.25 -279.967C1433.04 -280.978 1424.88 -281.868 1416.7 -282.6C1419.74 -288.228 1423.01 -294.101 1426.66 -300.23C1435 -298.556 1443.42 -296.719 1451.79 -294.766ZM1400.18 -283.954C1391.7 -284.563 1383.24 -285.033 1374.77 -285.404C1377.67 -292.369 1380.88 -299.754 1384.45 -307.437C1393.2 -306.177 1401.95 -304.818 1410.74 -303.238C1406.86 -296.526 1403.35 -290.071 1400.12 -283.977L1400.18 -283.954ZM1392.76 -269.24C1389.74 -262.995 1387.12 -257.305 1384.85 -252.151C1377.13 -251.686 1369.42 -251.181 1361.67 -250.559C1363.67 -256.562 1366.06 -263.258 1368.79 -270.391C1376.75 -270.089 1384.72 -269.746 1392.72 -269.222L1392.76 -269.24ZM1373.99 -224.129C1366.86 -222.619 1359.7 -221.051 1352.57 -219.443C1353.44 -223.086 1354.79 -228.331 1356.75 -234.892C1363.97 -235.524 1371.22 -236.074 1378.44 -236.566C1376.19 -230.697 1374.74 -226.47 1373.99 -224.129ZM862.273 75.1782C862.273 75.1782 861.986 75.3011 861.452 75.5295C851.918 79.6056 759.227 118.707 635.182 152.118C577.349 167.707 512.725 181.965 446.579 190.958C448.452 181.355 449.3 175.269 449.578 173.418C450.049 171.678 450.596 170.001 451.084 168.301C516.517 151.388 581.92 130.88 641.129 110.663C760.467 69.8846 854.433 30.2382 871.609 22.8942C873.459 22.1036 874.404 21.6994 874.404 21.6994C874.404 21.6994 877.938 20.1884 884.495 17.3367C904.226 8.80437 951.372 -11.5456 1012.72 -37.7769C1088.09 -69.9994 1184.88 -111.096 1278.67 -150.137C1276.63 -145.03 1274.52 -139.946 1272.38 -134.943C1205.25 -94.1653 1133.08 -55.3735 1068.33 -22.542C1011.01 6.53355 959.488 30.968 922.299 48.119C903.704 56.6945 888.704 63.4446 878.336 68.0699C873.152 70.3826 869.142 72.1451 866.447 73.3453C863.735 74.5049 862.297 75.1199 862.297 75.1199L862.273 75.1782ZM374.831 186.281C381.963 184.771 389.118 183.203 396.255 181.594C395.383 185.238 394.029 190.483 392.071 197.044C384.856 197.676 377.606 198.226 370.38 198.718C372.633 192.849 374.082 188.622 374.831 186.281ZM412.424 179.395C412.702 178.795 412.956 178.254 413.235 177.654C420.255 175.999 427.258 174.303 434.285 172.549C433.903 175.407 432.786 182.57 430.575 193.087C423.183 193.987 415.756 194.806 408.353 195.566C410.712 187.101 411.951 181.473 412.406 179.355L412.424 179.395ZM421.712 160.08C424.16 155.234 426.708 150.393 429.29 145.633C434.156 143.6 439.04 141.608 443.947 139.558C442.165 144.938 440.441 150.341 438.792 155.808C433.085 157.238 427.395 158.708 421.712 160.08ZM1006.74 -51.6671C924.879 -16.6686 868.334 7.84436 868.334 7.84436C868.334 7.84436 867.389 8.24853 865.581 9.0216C848.65 16.2603 754.991 55.8241 636.186 96.3745C579.999 115.588 518.105 134.98 456.167 151.313C458.265 144.74 460.44 138.231 462.773 131.75C560.721 91.0742 663.105 47.5876 742.045 13.8366C823.902 -21.162 880.447 -45.6749 880.447 -45.6749C880.447 -45.6749 881.351 -46.0615 883.159 -46.8346C900.089 -54.0732 993.749 -93.6372 1112.55 -134.188C1168.74 -153.401 1230.63 -172.793 1292.57 -189.126C1290.47 -182.553 1288.3 -176.044 1285.97 -169.563C1188.02 -128.887 1085.63 -85.4006 1006.7 -51.6495L1006.74 -51.6671ZM883.535 -119.963L886.59 -113.044C886.59 -113.044 886.836 -113.149 887.37 -113.378C896.904 -117.454 989.595 -156.555 1113.6 -189.949C1171.43 -205.537 1236.06 -219.796 1302.2 -228.789C1300.33 -219.186 1299.48 -213.099 1299.2 -211.249C1298.73 -209.508 1298.19 -207.831 1297.7 -206.132C1232.26 -189.218 1166.86 -168.71 1107.65 -148.494C988.314 -107.715 894.348 -68.0688 877.172 -60.7247C875.364 -59.9516 874.419 -59.5477 874.378 -59.5301C874.378 -59.5301 870.843 -58.019 864.286 -55.1672C844.555 -46.635 797.409 -26.2849 736.057 -0.0536355C660.693 32.1689 563.897 73.2659 470.111 112.307C472.156 107.2 474.259 102.116 476.397 97.1128C543.535 56.3347 615.702 17.5429 680.453 -15.2886C737.769 -44.3641 789.293 -68.7985 826.482 -85.9495C845.077 -94.525 860.077 -101.275 870.445 -105.9C875.629 -108.213 879.639 -109.976 882.334 -111.176C885.028 -112.376 886.484 -112.95 886.484 -112.95L883.511 -119.904L883.535 -119.963ZM1309.96 -193.58C1315.67 -195.01 1321.36 -196.481 1327.05 -197.853C1324.6 -193.006 1322.05 -188.165 1319.47 -183.405C1314.6 -181.373 1309.72 -179.381 1304.81 -177.331C1306.59 -182.71 1308.32 -188.113 1309.96 -193.58ZM1314.51 -210.339C1314.9 -213.196 1316.01 -220.36 1318.22 -230.877C1325.62 -231.777 1333.04 -232.595 1340.45 -233.356C1338.09 -224.891 1336.85 -219.263 1336.39 -217.144C1336.15 -216.562 1335.86 -216.003 1335.58 -215.403C1328.56 -213.748 1321.56 -212.052 1314.53 -210.299L1314.51 -210.339ZM1345.19 -249.092C1337.35 -248.336 1329.56 -247.458 1321.78 -246.54C1323.54 -253.787 1325.69 -261.966 1328.25 -270.855C1336.39 -270.919 1344.52 -270.885 1352.69 -270.769C1349.72 -262.815 1347.26 -255.508 1345.19 -249.092ZM454.422 110.741C453.159 113.927 451.973 117.176 450.727 120.402C447.728 121.684 444.693 122.886 441.693 124.168C443.459 121.249 445.265 118.312 447.13 115.398C449.586 113.867 451.984 112.313 454.44 110.782L454.422 110.741ZM402.532 164.673C397.928 165.728 393.407 166.747 388.844 167.784C391.059 165.009 393.351 162.297 395.625 159.545C399.547 157.917 403.485 156.329 407.448 154.683C405.798 157.986 404.165 161.329 402.532 164.673ZM357.455 189.862C356.417 192.663 355.124 196.006 353.583 199.791C346.727 200.125 339.942 200.284 333.116 200.461C334.593 197.665 335.734 195.446 336.522 193.762C343.476 192.52 350.454 191.22 357.438 189.822L357.455 189.862ZM346.879 215.259C344.743 219.925 342.364 224.934 339.703 230.305C332.089 229.664 324.541 228.947 316.923 228.068C319.72 223.697 322.258 219.63 324.414 215.918C331.896 215.797 339.384 215.578 346.879 215.259ZM300.147 226.005C293.332 225.071 286.564 224.02 279.779 222.929C282.088 220.258 284.144 217.792 286.071 215.477C292.93 215.719 299.755 215.879 306.627 215.923C304.643 219.128 302.513 222.444 300.147 226.005ZM290.603 239.946C287.636 244.149 284.458 248.538 281.009 253.091C273.361 251.118 265.678 249.064 258.008 246.812C261.581 243.119 264.802 239.626 267.853 236.301C275.422 237.635 282.997 238.869 290.561 239.964L290.603 239.946ZM270.918 266.208C267.182 270.883 263.152 275.781 258.957 280.749C250.541 277.662 242.09 274.493 233.576 271.063C237.936 266.937 242.05 262.918 245.952 259.085C254.266 261.591 262.627 263.981 270.918 266.208ZM248.278 293.059C246.34 295.234 244.444 297.392 242.424 299.602C184.208 363.406 90.2963 441.942 -53.9397 503.611C-163.904 550.627 -303.199 587.817 -478.255 601.047C-334.225 572.319 -213.881 533.323 -114.313 490.752C49.4833 420.72 156.886 341.225 221.313 282.511C230.33 286.207 239.318 289.723 248.278 293.059ZM218.232 264.732C210.858 261.584 203.433 258.313 195.997 254.903C200.1 251.994 203.956 249.191 207.648 246.458C214.953 249.107 222.23 251.575 229.513 253.944C225.911 257.456 222.145 261.039 218.191 264.75L218.232 264.732ZM181.643 264.984C189.751 268.829 197.831 272.493 205.899 276.017C142.113 333.16 37.4788 409.354 -120.318 476.821C-223.461 520.92 -349.406 561.253 -501.457 590.092C-402.343 556.806 -313.846 522.672 -235.44 489.15C-31.6198 402.005 104.05 318.938 181.602 265.002L181.643 264.984ZM-47.9351 517.542C100.78 453.958 197.243 372.407 256.564 306.64C259.037 303.899 261.305 301.246 263.672 298.598C273.33 301.973 282.882 305.104 292.424 308.095C290.932 310.175 289.423 312.216 287.931 314.297C233.997 387.092 144.414 474.503 0.178068 536.172C-113.32 584.699 -260.755 617.289 -451.506 614.045C-286.794 599.129 -154.019 562.947 -47.8766 517.565L-47.9351 517.542ZM274.241 286.143C278.766 280.697 283.021 275.415 287.005 270.296C295.959 272.481 304.907 274.426 313.804 276.25C309.98 282.311 305.943 288.558 301.578 294.946C292.522 292.18 283.396 289.252 274.265 286.085L274.241 286.143ZM297.026 257.017C300.812 251.887 304.327 246.921 307.565 242.218C315.774 243.229 323.931 244.119 332.118 244.851C329.081 250.479 325.808 256.351 322.158 262.481C313.812 260.807 305.395 258.97 297.026 257.017ZM348.639 246.205C357.114 246.814 365.578 247.284 374.048 247.655C371.145 254.62 367.935 262.005 364.366 269.687C355.613 268.427 346.867 267.068 338.074 265.489C341.961 258.777 345.471 252.321 348.698 246.228L348.639 246.205ZM356.055 231.49C359.072 225.246 361.694 219.556 363.962 214.401C371.686 213.937 379.392 213.432 387.146 212.81C385.103 218.83 382.757 225.509 380.023 232.642C372.069 232.339 364.097 231.996 356.096 231.473L356.055 231.49ZM403.645 211.383C411.488 210.628 419.278 209.75 427.051 208.832C425.289 216.078 423.147 224.257 420.581 233.146C412.46 233.251 404.311 233.176 396.145 233.061C399.111 225.106 401.576 217.799 403.645 211.383ZM1294.41 -148.45C1295.67 -151.635 1296.86 -154.884 1298.11 -158.11C1301.11 -159.393 1304.14 -160.594 1307.14 -161.877C1305.33 -158.94 1303.57 -156.021 1301.7 -153.107C1299.25 -151.576 1296.85 -150.022 1294.39 -148.491L1294.41 -148.45ZM1346.3 -202.382C1350.9 -203.436 1355.43 -204.456 1359.99 -205.493C1357.77 -202.718 1355.48 -200.006 1353.21 -197.254C1349.29 -195.625 1345.35 -194.038 1341.39 -192.392C1343.04 -195.695 1344.67 -199.038 1346.3 -202.382ZM1391.38 -227.571C1392.42 -230.372 1393.71 -233.714 1395.25 -237.5C1402.11 -237.834 1408.89 -237.993 1415.72 -238.17C1414.24 -235.374 1413.1 -233.154 1412.31 -231.471C1405.36 -230.229 1398.38 -228.929 1391.4 -227.53L1391.38 -227.571ZM1401.95 -252.968C1404.09 -257.633 1406.47 -262.643 1409.13 -268.013C1416.74 -267.373 1424.29 -266.656 1431.91 -265.776C1429.11 -261.406 1426.58 -257.338 1424.42 -253.627C1416.94 -253.506 1409.45 -253.286 1401.95 -252.968ZM1448.69 -263.714C1455.5 -262.78 1462.27 -261.729 1469.05 -260.638C1466.75 -257.967 1464.69 -255.501 1462.76 -253.186C1455.9 -253.428 1449.08 -253.588 1442.21 -253.632C1444.19 -256.837 1446.32 -260.153 1448.69 -263.714ZM1458.23 -277.655C1461.2 -281.857 1464.38 -286.246 1467.82 -290.799C1475.47 -288.826 1483.16 -286.772 1490.83 -284.52C1487.25 -280.828 1484.03 -277.334 1480.98 -274.01C1473.41 -275.343 1465.84 -276.578 1458.23 -277.655ZM1477.91 -303.916C1481.65 -308.592 1485.68 -313.49 1489.88 -318.458C1498.29 -315.37 1506.74 -312.201 1515.26 -308.771C1510.9 -304.646 1506.78 -300.626 1502.88 -296.793C1494.57 -299.3 1486.21 -301.689 1477.91 -303.916ZM1530.62 -302.4C1537.99 -299.251 1545.42 -295.981 1552.85 -292.571C1548.75 -289.662 1544.89 -286.859 1541.2 -284.126C1533.9 -286.774 1526.62 -289.243 1519.34 -291.612C1522.94 -295.124 1526.71 -298.707 1530.66 -302.418L1530.62 -302.4ZM1582.85 -295.054C1660.65 -348.521 1793.38 -428.694 1990.21 -512.852C2072.28 -547.938 2165.51 -583.714 2270.54 -618.518C2036.39 -499.311 1855.72 -409.174 1730.96 -347.556C1678.23 -321.501 1635.55 -300.606 1602.97 -284.707C1596.25 -288.276 1589.57 -291.724 1582.87 -295.014L1582.85 -295.054ZM1742.77 -587.766C1593.44 -523.918 1501.03 -432.653 1446.08 -357.354C1444.37 -354.988 1442.68 -352.679 1441.05 -350.348C1431.08 -353.204 1421.18 -355.897 1411.34 -358.329C1413.05 -361.271 1414.82 -364.191 1416.65 -367.186C1467.15 -449.481 1553.67 -546.214 1699.47 -608.55C1815.19 -658.026 1968.53 -685.88 2171.3 -667.142C1992.81 -666.727 1852.48 -634.676 1742.81 -587.783L1742.77 -587.766ZM1431.96 -337.176C1427.36 -330.304 1423.03 -323.597 1419.06 -317.088C1409.82 -318.812 1400.56 -320.338 1391.42 -321.719C1395.11 -329.117 1399.12 -336.795 1403.49 -344.631C1412.94 -342.32 1422.44 -339.888 1431.96 -337.176ZM1375.53 -323.971C1366.16 -325.206 1356.81 -326.26 1347.54 -327.152C1350.99 -335.893 1354.85 -344.949 1359.02 -354.186C1368.63 -352.382 1378.32 -350.415 1388.06 -348.228C1383.5 -339.885 1379.33 -331.799 1375.49 -323.953L1375.53 -323.971ZM1368.72 -309.56C1364.91 -301.296 1361.55 -293.363 1358.55 -285.927C1349.97 -286.105 1341.42 -286.203 1332.89 -286.16C1335.52 -294.451 1338.52 -303.237 1341.92 -312.437C1350.82 -311.626 1359.73 -310.674 1368.72 -309.56ZM367.045 171.14C366.674 171.635 366.262 172.148 365.89 172.644C364.453 172.921 363.017 173.199 361.556 173.535C361.721 173.464 361.809 173.33 361.956 173.219C363.641 172.499 365.343 171.819 367.045 171.14ZM317.712 196.946C317.097 198.123 316.4 199.335 315.679 200.605C309.662 200.628 303.646 200.652 297.676 200.558C297.829 200.349 297.941 200.156 298.095 199.947C304.549 199.015 311.11 197.989 317.694 196.906L317.712 196.946ZM266.929 214.474C265.503 216.142 263.955 217.862 262.358 219.699C257.067 218.691 251.799 217.624 246.496 216.476C247.907 215.344 249.154 214.282 250.378 213.278C255.865 213.721 261.394 214.147 266.929 214.474ZM250.31 232.787C247.608 235.674 244.7 238.649 241.686 241.717C235.28 239.694 228.822 237.549 222.411 235.288C225.539 232.94 228.461 230.681 231.237 228.532C237.616 230.038 243.943 231.421 250.334 232.729L250.31 232.787ZM155.762 225.256C152.708 226.754 149.573 228.287 146.273 229.89C143.24 228.253 140.23 226.558 137.162 224.839C141.286 223.797 145.18 222.902 148.752 222.048C151.062 223.129 153.412 224.193 155.762 225.256ZM6.05487 549.918C155.386 486.07 247.793 394.805 302.747 319.506C304.457 317.139 306.143 314.831 307.771 312.5C317.741 315.356 327.641 318.049 337.479 320.481C335.772 323.423 334.006 326.343 332.176 329.338C281.672 411.633 195.151 508.366 49.3538 570.702C-66.3637 620.178 -219.711 648.032 -422.482 629.294C-243.988 628.879 -103.663 596.828 6.01374 549.935L6.05487 549.918ZM316.866 299.328C321.462 292.456 325.788 285.749 329.761 279.24C339.004 280.964 348.26 282.49 357.405 283.871C353.714 291.269 349.706 298.947 345.329 306.783C335.883 304.472 326.386 302.04 316.866 299.328ZM373.289 286.123C382.663 287.357 392.008 288.412 401.285 289.304C397.828 298.045 393.972 307.101 389.805 316.338C380.187 314.534 370.5 312.567 360.767 310.379C365.317 302.037 369.491 293.951 373.33 286.105L373.289 286.123ZM380.105 271.712C383.893 263.407 387.276 255.515 390.269 248.079C398.851 248.257 407.398 248.355 415.894 248.33C413.266 256.62 410.266 265.407 406.86 274.607C397.959 273.795 389.046 272.844 380.064 271.73L380.105 271.712ZM1381.78 -208.988C1382.15 -209.483 1382.56 -209.996 1382.93 -210.492C1384.37 -210.769 1385.81 -211.047 1387.27 -211.383C1387.1 -211.312 1387.01 -211.178 1386.87 -211.067C1385.18 -210.347 1383.48 -209.667 1381.78 -208.988ZM1431.11 -234.794C1431.73 -235.971 1432.42 -237.183 1433.14 -238.453C1439.16 -238.477 1445.18 -238.5 1451.15 -238.407C1450.99 -238.197 1450.88 -238.004 1450.73 -237.795C1444.27 -236.863 1437.71 -235.837 1431.13 -234.754L1431.11 -234.794ZM1481.89 -252.322C1483.32 -253.99 1484.87 -255.71 1486.46 -257.547C1491.76 -256.539 1497.02 -255.472 1502.33 -254.325C1500.91 -253.192 1499.67 -252.13 1498.44 -251.126C1492.96 -251.569 1487.43 -251.995 1481.89 -252.322ZM1498.51 -270.635C1501.21 -273.522 1504.12 -276.497 1507.14 -279.565C1513.54 -277.542 1520 -275.397 1526.41 -273.136C1523.28 -270.788 1520.36 -268.529 1517.59 -266.38C1511.21 -267.886 1504.88 -269.269 1498.49 -270.577L1498.51 -270.635ZM1593.06 -263.104C1596.11 -264.602 1599.25 -266.135 1602.55 -267.738C1605.58 -266.101 1608.59 -264.406 1611.66 -262.687C1607.54 -261.646 1603.64 -260.75 1600.07 -259.896C1597.76 -260.977 1595.41 -262.041 1593.06 -263.104ZM1372.81 -382.641C1420.27 -474.653 1504.35 -580.97 1652.51 -644.367C1769.67 -694.457 1927.34 -717.764 2139.37 -684.993C1950.87 -698.096 1805.34 -670.364 1693.49 -622.54C1541.94 -557.743 1452.49 -456.25 1401.14 -371.044C1399.31 -368.049 1397.58 -365.048 1395.84 -362.088C1385.71 -364.397 1375.66 -366.543 1365.66 -368.428C1367.92 -373.146 1370.27 -377.899 1372.79 -382.682L1372.81 -382.641ZM784.736 -247.705C819.238 -270.345 849.336 -287.255 870.796 -298.45C881.526 -304.048 890.046 -308.22 895.901 -311.011C898.807 -312.398 901.091 -313.423 902.594 -314.114C903.375 -314.448 903.95 -314.694 904.32 -314.852C904.69 -315.01 904.854 -315.08 904.854 -315.08L901.881 -322.034L905.059 -315.168L902.965 -319.612L904.977 -315.133C908.963 -316.837 1000.23 -355.283 1136.08 -365.747C1197.46 -370.439 1267.92 -369.446 1343.6 -356.829C1339.26 -347.085 1335.29 -337.598 1331.77 -328.444C1257.36 -334.242 1187.17 -330.158 1125.74 -321.737C991.696 -303.292 898.946 -264.214 893.052 -261.742L892.765 -261.619C892.477 -261.496 800.192 -221.558 692.304 -147.291C647.399 -116.355 599.813 -79.4151 554.989 -36.922C556.233 -38.5601 557.459 -40.2389 558.744 -41.8946C629.12 -133.985 715.749 -202.385 784.794 -247.682L784.736 -247.705ZM221.649 210.313C224.067 210.626 226.55 210.863 229.009 211.159C228.568 211.491 228.104 211.882 227.621 212.233C225.456 211.716 223.297 211.099 221.114 210.542C221.279 210.471 221.484 210.383 221.608 210.331L221.649 210.313ZM14.5928 208.269C20.485 208.636 26.0721 209.085 31.4949 209.604C-19.5935 217.21 -85.3502 233.252 -161.701 265.896C-276.761 315.09 -415.671 401.948 -563.912 553.833C-444.799 385.205 -323.314 296.13 -217.212 250.765C-124.507 211.129 -43.3806 204.773 14.5755 208.229L14.5928 208.269ZM376.027 344.932C328.559 436.945 244.484 543.262 96.3201 606.658C-20.8357 656.749 -178.468 680.038 -390.495 647.267C-202.01 660.33 -56.4677 632.638 55.346 584.831C206.896 520.035 296.339 418.541 347.689 333.335C349.519 330.34 351.25 327.339 352.998 324.379C363.123 326.688 373.178 328.834 383.17 330.719C380.91 335.437 378.551 340.15 376.044 344.973L376.027 344.932ZM964.098 209.997C929.596 232.637 899.497 249.546 878.037 260.741C867.307 266.339 858.787 270.511 852.933 273.303C850.026 274.69 847.742 275.715 846.239 276.405C845.458 276.739 844.883 276.985 844.514 277.143C844.144 277.301 843.979 277.371 843.979 277.371L843.815 277.442C839.829 279.146 748.558 317.592 612.71 328.056C551.336 332.748 480.871 331.755 405.194 319.138C409.534 309.394 413.498 299.907 417.02 290.753C491.435 296.551 561.623 292.467 623.056 284.046C757.096 265.601 849.846 226.523 855.74 224.051L855.986 223.946C856.356 223.788 948.6 183.867 1056.49 109.6C1101.39 78.6644 1148.98 41.7241 1193.8 -0.768977C1192.56 0.869091 1191.33 2.54777 1190.05 4.20348C1119.67 96.2939 1033.04 164.694 963.998 209.991L964.098 209.997ZM1527.18 -248.022C1524.77 -248.335 1522.28 -248.572 1519.82 -248.867C1520.27 -249.2 1520.73 -249.591 1521.21 -249.941C1523.38 -249.424 1525.54 -248.808 1527.72 -248.25C1527.55 -248.18 1527.35 -248.092 1527.23 -248.039L1527.18 -248.022ZM1734.24 -245.978C1728.35 -246.344 1722.76 -246.794 1717.32 -247.354C1768.41 -254.959 1834.17 -271.001 1910.52 -303.645C2025.58 -352.84 2164.49 -439.697 2312.73 -591.582C2193.62 -422.954 2072.13 -333.879 1966.03 -288.515C1873.32 -248.878 1792.2 -242.523 1734.24 -245.978Z" fill="url(#paint0_linear_4552_22508)"/>
</g>
<defs>
<linearGradient id="paint0_linear_4552_22508" x1="-604.92" y1="613.549" x2="2353.77" y2="-651.456" gradientUnits="userSpaceOnUse">
<stop offset="0.14" stop-color="#FFF200"/>
<stop offset="0.26" stop-color="#F58220"/>
<stop offset="0.3" stop-color="#F58220"/>
<stop offset="0.37" stop-color="#08B798"/>
<stop offset="0.65" stop-color="#00B49D"/>
<stop offset="0.7" stop-color="#F58220"/>
<stop offset="0.75" stop-color="#F58220"/>
<stop offset="1" stop-color="#C6168D"/>
</linearGradient>
</defs>
</svg>
