<svg width="1440" height="420" viewBox="0 0 1440 420" fill="none" xmlns="http://www.w3.org/2000/svg">
<mask id="mask0_4471_27297" style="mask-type:alpha" maskUnits="userSpaceOnUse" x="0" y="0" width="1440" height="420">
<path d="M0 32.2C0 20.8102 0 15.1153 2.25173 10.7805C4.14924 7.12765 7.12765 4.14924 10.7805 2.25173C15.1153 0 20.8102 0 32.2 0H1407.8C1419.19 0 1424.88 0 1429.22 2.25173C1432.87 4.14924 1435.85 7.12765 1437.75 10.7805C1440 15.1153 1440 20.8102 1440 32.2V420H0V32.2Z" fill="#10172B"/>
</mask>
<g mask="url(#mask0_4471_27297)">
<path opacity="0.1" d="M828.039 504.102C828.039 504.102 827.926 504.114 827.856 504.113L827.919 502.328C827.765 502.319 827.61 502.31 827.47 502.308L827.842 500.646C827.603 500.594 827.365 500.542 827.133 500.475L827.737 499.054C827.435 498.917 827.14 498.801 826.839 498.664L827.581 497.524C827.252 497.303 826.915 497.096 826.586 496.875L827.356 496.028C827.012 495.73 826.669 495.432 826.326 495.134L827.025 494.53C826.703 494.156 826.374 493.795 826.052 493.421L826.644 493.025C826.351 492.595 826.037 492.172 825.743 491.742L826.208 491.491C825.936 491.02 825.664 490.548 825.392 490.077L825.737 489.922C778.874 390.351 725.158 337.169 673.858 310.914C621.113 283.919 571.143 285.538 534.521 293.9C532.734 294.314 530.996 294.735 529.265 295.178C515.19 270.865 498.996 250.797 483.347 234.714C449.285 199.682 417.8 183.341 416.075 182.458L416.005 182.422C415.865 182.35 384.147 166.292 338.344 156.551C315.45 151.685 289.02 148.399 261.25 149.496C250.803 149.917 240.156 150.969 229.443 152.774C221.628 152.619 213.775 152.777 205.942 153.347C198.278 152.273 190.648 151.478 183.122 151.034C175.498 148.74 168.034 146.686 160.788 144.899C153.41 140.949 146.334 137.135 139.7 133.53L139.223 133.285C136.247 130.557 133.341 127.829 130.59 125.11L129.946 124.466L129.054 124.341L129.026 124.327C128.808 124.303 127.783 124.162 125.949 123.836C124.336 121.489 122.771 119.116 121.284 116.729L120.858 116.04L120.115 115.694C120.115 115.694 117.94 114.686 113.646 112.733C113.006 111.252 112.387 109.764 111.788 108.269L111.566 107.701L111.125 107.283C111.125 107.283 108.205 104.583 102.278 100.011C102.257 99.9135 102.215 99.8222 102.195 99.7243L102.091 99.3391L101.874 99.0011C101.798 98.8744 97.8955 92.4907 88.9955 82.7976C86.3405 77.3667 81.9874 69.5463 75.3621 60.528C62.817 43.4992 42.1287 22.3201 9.64021 5.69248C-31.2089 -15.2141 -90.6315 -28.8841 -175.729 -18.4343L-175.013 -13.1222C-175.013 -13.1222 -174.901 -13.1346 -174.83 -13.1335L-174.894 -11.3487C-174.739 -11.3394 -174.585 -11.3302 -174.444 -11.3282L-174.817 -9.66632C-174.578 -9.61403 -174.339 -9.56173 -174.108 -9.49558L-174.711 -8.07427C-174.409 -7.93735 -174.115 -7.82146 -173.813 -7.68454L-174.556 -6.54433C-174.227 -6.32329 -173.89 -6.11611 -173.561 -5.89507L-174.33 -5.04821C-173.987 -4.75024 -173.644 -4.45226 -173.301 -4.15429L-173.999 -3.55056C-173.678 -3.17617 -173.349 -2.81563 -173.027 -2.44125L-173.619 -2.04521C-173.326 -1.61542 -173.011 -1.1923 -172.718 -0.76251L-173.183 -0.511156C-172.911 -0.0398194 -172.638 0.431507 -172.366 0.902845L-172.711 1.05827C-125.891 100.642 -72.1608 153.832 -20.861 180.087C31.8837 207.082 81.8537 205.463 118.476 197.1C120.263 196.686 122.001 196.265 123.732 195.823C137.814 220.122 154.008 240.189 169.65 256.287C203.712 291.318 235.197 307.659 236.922 308.543L236.978 308.571C237.133 308.65 268.85 324.709 314.639 334.442C337.534 339.308 363.963 342.594 391.733 341.497C402.18 341.076 412.82 340.038 423.54 338.219C431.356 338.375 439.208 338.216 447.041 337.646C454.705 338.72 462.335 339.515 469.862 339.959C477.486 342.253 484.949 344.308 492.195 346.094C499.573 350.045 506.649 353.858 513.284 357.464L513.761 357.708C516.736 360.437 519.642 363.164 522.393 365.883L523.037 366.527L523.943 366.659L523.971 366.673C524.189 366.698 525.214 366.838 527.048 367.164C528.661 369.511 530.226 371.884 531.713 374.271L532.139 374.961L532.883 375.306C532.883 375.306 535.057 376.315 539.351 378.267C539.991 379.749 540.61 381.236 541.209 382.731L541.438 383.285L541.879 383.703C541.879 383.703 544.799 386.404 550.726 390.975C550.747 391.073 550.782 391.178 550.809 391.262L550.913 391.647L551.13 391.985C551.207 392.112 555.109 398.496 564.009 408.189C566.664 413.62 571.017 421.44 577.642 430.459C590.187 447.487 610.876 468.666 643.364 485.294C684.213 506.201 743.636 519.871 828.733 509.421L828.017 504.109L828.039 504.102ZM568.527 405.171C568.13 404.356 567.789 403.605 567.482 402.924C579.98 411.33 597.283 421.898 619.854 433.45C662.316 455.182 723.405 480.331 806.163 500.946C732.411 494.971 678.397 477.096 639.82 457.353C608.763 441.458 587.706 424.354 574.427 411.249C572.25 409.104 570.297 407.073 568.52 405.15L568.527 405.171ZM541.648 370.216C542.61 370.446 543.622 370.684 544.661 370.936C545.196 372.45 545.71 373.972 546.216 375.507C545.241 375.06 544.322 374.642 543.473 374.26C542.874 372.905 542.275 371.55 541.648 370.216ZM259.078 290.364L259.008 290.328C257.297 289.452 226.17 273.312 191.453 241.633C175.839 227.385 159.521 209.98 144.79 189.439C148.24 188.198 151.443 186.954 154.415 185.714C170.923 204.683 188.849 221.058 205.731 234.662C242.081 263.909 273.643 280.272 276.126 281.543L276.266 281.615C276.35 281.658 307.893 297.609 350.994 312.905C371.945 320.324 395.616 327.581 419.753 332.786C415.564 332.635 411.376 332.413 407.209 332.081C368.407 329.034 331.316 318.597 303.965 308.915C290.278 304.078 279.044 299.429 271.229 295.988C267.328 294.272 264.262 292.86 262.2 291.874C261.161 291.378 260.383 290.997 259.843 290.738C259.576 290.601 259.38 290.501 259.253 290.436C259.127 290.372 259.057 290.336 259.057 290.336L259.078 290.364ZM84.5401 85.8651C84.9373 86.6801 85.2785 87.4314 85.5849 88.1125C73.0876 79.7066 55.7845 69.1382 33.2277 57.5936C-9.23457 35.8614 -70.3237 10.7127 -153.082 -9.90206C-79.3292 -3.9278 -25.3157 13.9469 13.2609 33.6904C44.3185 49.5858 65.3756 66.6893 78.6543 79.7944C80.8313 81.9396 82.7838 83.97 84.561 85.8933L84.5401 85.8651ZM111.419 120.821C110.457 120.59 109.446 120.353 108.406 120.1C107.872 118.586 107.358 117.065 106.851 115.529C107.826 115.976 108.745 116.394 109.594 116.776C110.193 118.131 110.792 119.486 111.419 120.821ZM395.187 198.297L394.031 200.694L394.059 200.708C395.771 201.584 426.898 217.725 461.614 249.404C477.229 263.652 493.547 281.056 508.277 301.598C504.827 302.838 501.624 304.082 498.652 305.323C482.144 286.353 464.219 269.978 447.336 256.375C410.986 227.127 379.424 210.764 376.941 209.494L376.787 209.415C376.717 209.379 345.182 193.414 302.073 178.132C281.123 170.712 257.451 163.456 233.314 158.25C237.503 158.402 241.691 158.623 245.858 158.956C284.66 162.002 321.751 172.439 349.103 182.121C362.789 186.958 374.023 191.607 381.839 195.048C385.74 196.765 388.805 198.176 390.868 199.162C391.906 199.658 392.685 200.039 393.225 200.298C393.491 200.435 393.688 200.535 393.814 200.6C393.94 200.665 394.01 200.701 394.01 200.701L395.222 198.332L395.187 198.297ZM565.113 394.86C564.797 393.056 564.495 391.259 564.151 389.475C604.997 407.863 685.75 443.81 805.344 495.248C724.04 474.836 663.997 450.065 622.264 428.706C596.452 415.496 577.651 403.601 565.106 394.839L565.113 394.86ZM552.804 378.511C552.187 376.5 551.548 374.496 550.882 372.512C552.272 372.874 553.726 373.251 555.228 373.67C555.767 375.869 556.299 378.081 556.796 380.327C555.687 379.83 554.628 379.34 553.603 378.886C553.337 378.749 553.07 378.648 552.811 378.532L552.804 378.511ZM278.69 276.878L278.564 276.813C276.306 275.658 245.017 259.452 209.102 230.532C192.772 217.404 175.526 201.639 159.577 183.514C162.809 182.075 165.683 180.715 168.141 179.474C186.122 196.086 205.283 210.944 223.161 223.537C260.508 249.834 292.189 266.24 295.598 267.985C295.794 268.086 295.893 268.136 295.893 268.136C295.935 268.157 327.379 284.058 369.14 302.111C390.54 311.351 414.629 321.146 438.604 329.676C437.514 329.939 436.423 330.203 435.326 330.445C406.598 325.354 377.716 316.759 352.744 307.893C331.366 300.307 312.821 292.546 299.638 286.69C293.05 283.755 287.788 281.307 284.19 279.588C282.387 278.718 281.012 278.049 280.065 277.582C279.132 277.122 278.655 276.878 278.655 276.878L278.69 276.878ZM87.9336 96.1828C88.2492 97.9872 88.5509 99.7844 88.8948 101.568C48.0491 83.18 -32.7039 47.2334 -152.298 -4.2053C-70.9865 16.1932 -10.9643 40.9706 30.7686 62.3295C56.5798 75.5396 75.3815 87.4343 87.9265 96.1967L87.9336 96.1828ZM44.2915 87.4436C63.2415 95.8664 78.5289 102.729 90.182 107.977C90.7333 110.601 91.3058 113.183 91.9275 115.738C59.899 106.686 8.24745 88.7622 -58.9459 54.3726C-86.9595 40.0352 -117.681 22.8264 -150.799 2.20637C-65.6982 38.823 -0.533107 67.4908 44.2845 87.4225L44.2915 87.4436ZM100.243 112.532C100.86 114.543 101.512 116.554 102.164 118.531C100.774 118.169 99.3205 117.792 97.8181 117.373C97.2791 115.174 96.7473 112.962 96.2507 110.716C97.3592 111.213 98.4185 111.703 99.4428 112.157C99.7093 112.294 99.9761 112.395 100.236 112.511L100.243 112.532ZM375.568 211.797L374.384 214.179L374.398 214.186L374.482 214.229C376.741 215.385 408.029 231.591 443.945 260.511C460.274 273.639 477.52 289.404 493.469 307.529C490.237 308.968 487.363 310.328 484.905 311.569C466.925 294.957 447.763 280.099 429.885 267.506C392.538 241.209 360.857 224.802 357.448 223.058C357.266 222.965 357.168 222.914 357.154 222.907C357.154 222.907 325.667 206.985 283.907 188.932C262.507 179.692 238.417 169.897 214.442 161.367C215.532 161.103 216.616 160.854 217.721 160.598C246.448 165.689 275.33 174.284 300.302 183.15C321.68 190.736 340.226 198.497 353.409 204.353C359.996 207.287 365.258 209.736 368.857 211.455C370.659 212.325 372.034 212.994 372.981 213.461C373.914 213.921 374.391 214.165 374.391 214.165L375.603 211.797L375.568 211.797ZM552.222 344.991C553.248 345.026 554.26 345.055 555.314 345.105C585.723 346.53 628.174 354.31 677.412 379.51C714.951 398.722 756.446 428.086 799.528 472.541C759.256 439.993 721.533 416.16 687.558 398.772C631.643 370.154 585.889 358.936 555.456 354.685C554.423 351.413 553.347 348.188 552.229 345.012L552.222 344.991ZM685.12 403.501C720.33 421.521 759.664 446.563 801.776 481.259C770.403 461.899 741.195 445.605 714.43 431.906C644.852 396.296 591.753 378.225 559.654 369.347C558.865 366.287 558.035 363.275 557.169 360.298C587.031 364.728 631.267 375.939 685.134 403.508L685.12 403.501ZM679.829 374.753C629.062 348.77 585.22 340.977 554.03 339.694C552.73 339.641 551.499 339.623 550.248 339.577C548.983 336.203 547.676 332.912 546.333 329.656C547.233 329.592 548.126 329.542 549.026 329.479C580.904 327.723 624.781 332.336 674.019 357.536C712.764 377.365 754.85 409.968 797.006 462.354C755.815 421.087 716.056 393.276 679.822 374.732L679.829 374.753ZM544.492 339.514C541.997 339.513 539.607 339.548 537.322 339.619C535.893 336.704 534.401 333.843 532.888 331.023C535.391 330.697 537.993 330.386 540.708 330.132C542.002 333.207 543.268 336.336 544.471 339.521L544.492 339.514ZM531.465 339.89C529.223 340.018 527.085 340.182 525.081 340.362C523.503 337.912 521.903 335.503 520.254 333.121C522.463 332.679 524.792 332.245 527.275 331.856C528.705 334.493 530.106 337.185 531.465 339.89ZM516.894 328.343C515.147 325.911 513.364 323.513 511.554 321.136C514.095 320.357 516.819 319.566 519.704 318.806C521.337 321.459 522.943 324.133 524.498 326.87C521.804 327.326 519.265 327.826 516.887 328.322L516.894 328.343ZM511.237 329.642C508.865 330.228 506.733 330.797 504.826 331.342C502.958 329.354 501.082 327.381 499.164 325.421C501.242 324.614 503.593 323.755 506.141 322.892C507.854 325.114 509.56 327.35 511.223 329.635L511.237 329.642ZM494.788 334.698C492.77 333.106 490.732 331.521 488.686 329.95C489.869 329.367 491.595 328.555 493.813 327.61C495.612 329.422 497.396 331.262 499.16 333.108C497.062 333.817 495.591 334.375 494.788 334.698ZM298.303 263.392C298.303 263.392 298.204 263.342 298.022 263.249C294.768 261.583 263.269 245.27 226.237 219.187C208.969 207.028 190.529 192.732 173.171 176.84C176.194 175.189 178.033 174.051 178.597 173.71C179.175 173.446 179.752 173.218 180.322 172.968C199.664 186.886 219.972 199.989 238.803 211.479C276.768 234.632 308.701 251.168 314.565 254.169C315.196 254.492 315.519 254.657 315.519 254.657C315.519 254.657 316.725 255.275 318.977 256.409C325.738 259.835 341.885 268.029 362.828 278.748C388.555 291.915 421.52 308.891 453.25 325.515C451.405 326.109 449.554 326.682 447.717 327.227C421.53 318.211 394.746 307.387 371.248 297.231C350.445 288.244 332.205 279.782 319.171 273.566C312.654 270.458 307.442 267.913 303.851 266.145C302.055 265.261 300.673 264.571 299.74 264.111C298.815 263.637 298.324 263.386 298.324 263.386L298.303 263.392ZM158.251 156.359C160.269 157.951 162.307 159.536 164.353 161.107C163.17 161.69 161.444 162.502 159.226 163.447C157.427 161.635 155.643 159.795 153.879 157.949C155.977 157.24 157.448 156.682 158.251 156.359ZM168.596 164.992C168.822 164.932 169.026 164.879 169.251 164.82C171.283 166.349 173.322 167.865 175.382 169.373C174.522 169.912 172.331 171.22 168.984 172.985C167.073 171.185 165.176 169.358 163.3 167.524C166.124 166.26 167.927 165.331 168.603 164.978L168.596 164.992ZM175.921 163.166C177.786 162.739 179.672 162.341 181.543 161.971C183.191 162.832 184.832 163.706 186.494 164.575C184.636 165.301 182.784 166.049 180.932 166.831C179.257 165.607 177.575 164.396 175.921 163.166ZM365.238 274.004C337.295 259.703 317.901 249.899 317.901 249.899C317.901 249.899 317.578 249.734 316.961 249.418C311.181 246.46 279.339 229.989 241.557 206.929C223.679 196.031 204.464 183.629 186.068 170.526C188.322 169.617 190.575 168.743 192.856 167.918C225.966 185.301 260.839 203.254 287.787 217.045C315.73 231.347 335.124 241.15 335.124 241.15C335.124 241.15 335.433 241.308 336.05 241.624C341.83 244.582 373.672 261.054 411.454 284.113C429.332 295.011 448.547 307.414 466.943 320.516C464.689 321.426 462.436 322.3 460.156 323.125C427.045 305.742 392.172 287.789 365.224 273.997L365.238 274.004ZM355.935 225.289L354.751 227.672C354.751 227.672 354.835 227.715 355.017 227.808C358.272 229.474 389.77 245.787 426.788 271.863C444.056 284.021 462.496 298.317 479.854 314.209C476.831 315.861 474.992 316.999 474.428 317.34C473.851 317.603 473.273 317.832 472.703 318.082C453.361 304.163 433.053 291.061 414.222 279.57C376.257 256.418 344.324 239.882 338.46 236.881C337.843 236.565 337.52 236.4 337.506 236.392C337.506 236.392 336.3 235.775 334.048 234.64C327.287 231.214 311.14 223.021 290.197 212.302C264.47 199.135 231.505 182.158 199.775 165.535C201.62 164.941 203.471 164.368 205.308 163.822C231.495 172.838 258.279 183.663 281.777 193.819C302.58 202.806 320.82 211.267 333.854 217.484C340.371 220.592 345.583 223.137 349.174 224.905C350.97 225.789 352.352 226.479 353.285 226.939C354.217 227.399 354.701 227.664 354.701 227.664L355.913 225.296L355.935 225.289ZM472.072 324.225C473.747 325.45 475.429 326.66 477.082 327.891C475.218 328.317 473.333 328.715 471.461 329.086C469.813 328.225 468.172 327.35 466.51 326.482C468.368 325.755 470.22 325.008 472.072 324.225ZM477.636 321.69C478.496 321.152 480.687 319.844 484.034 318.079C485.945 319.878 487.842 321.706 489.718 323.54C486.894 324.803 485.091 325.733 484.415 326.086C484.203 326.152 483.985 326.198 483.76 326.258C481.728 324.728 479.689 323.213 477.629 321.704L477.636 321.69ZM495.049 321.287C493.075 319.333 491.08 317.421 489.078 315.522C491.437 314.37 494.135 313.112 497.121 311.809C498.974 313.998 500.799 316.208 502.61 318.446C499.787 319.431 497.253 320.405 495.049 321.287ZM196.66 160.934C195.513 161.308 194.365 161.717 193.211 162.105C192.187 161.581 191.177 161.029 190.153 160.505C191.341 160.327 192.544 160.156 193.754 160.006C194.722 160.327 195.684 160.627 196.653 160.948L196.66 160.934ZM170.351 159.004C169.027 157.994 167.731 156.999 166.42 155.996C167.672 155.972 168.923 155.983 170.181 155.981C171.507 156.677 172.825 157.387 174.165 158.09C172.898 158.385 171.625 158.694 170.351 159.004ZM153.361 152.458C152.369 152.806 151.172 153.208 149.799 153.641C148.162 151.859 146.588 150.058 145 148.249C146.091 148.021 146.949 147.831 147.582 147.666C149.488 149.27 151.414 150.867 153.368 152.444L153.361 152.458ZM144.099 155.302C142.354 155.772 140.461 156.254 138.406 156.741C136.862 154.535 135.353 152.329 133.872 150.069C135.687 149.844 137.361 149.617 138.852 149.367C140.573 151.366 142.322 153.344 144.099 155.302ZM130.646 145.062C129.362 143.006 128.119 140.937 126.884 138.855C128.128 138.88 129.26 138.882 130.321 138.884C131.803 140.796 133.299 142.68 134.838 144.551C133.523 144.734 132.144 144.902 130.646 145.062ZM124.718 145.611C122.911 145.752 121.006 145.878 118.995 145.967C117.804 143.452 116.627 140.91 115.506 138.327C117.312 138.465 118.984 138.552 120.573 138.63C121.919 140.98 123.294 143.309 124.704 145.604L124.718 145.611ZM113.167 146.183C111.058 146.222 108.823 146.231 106.531 146.212C105.469 143.239 104.42 140.238 103.428 137.161C105.528 137.415 107.545 137.625 109.463 137.82C110.66 140.635 111.899 143.437 113.167 146.183ZM100.789 146.087C99.7629 146.051 98.7509 146.022 97.6968 145.972C67.2877 144.547 24.8365 136.767 -24.4012 111.567C-61.9397 92.3548 -103.435 62.991 -146.511 18.5573C-106.238 51.1053 -68.5295 74.931 -34.54 92.3268C21.375 120.944 67.1293 132.163 97.5615 136.413C98.595 139.686 99.6708 142.91 100.789 146.087ZM101.68 131.583C100.869 128.878 100.079 126.132 99.3251 123.352C101.038 123.809 102.667 124.223 104.24 124.609C105.171 127.183 106.144 129.708 107.146 132.213C105.383 132.027 103.563 131.812 101.666 131.576L101.68 131.583ZM93.3571 121.731C94.1455 124.79 94.9762 127.802 95.8422 130.779C65.9801 126.349 21.744 115.139 -32.1229 87.5695C-67.3328 69.549 -106.667 44.5068 -148.779 9.81149C-117.406 29.1714 -88.1985 45.4654 -61.4334 59.1638C8.14469 94.7739 61.2435 112.845 93.3431 121.723L93.3571 121.731ZM-26.8184 116.324C23.9484 142.307 67.7913 150.1 98.9812 151.383C100.281 151.437 101.511 151.455 102.762 151.501C104.027 154.874 105.335 158.165 106.678 161.421C105.778 161.485 104.885 161.535 103.985 161.599C72.1072 163.354 28.2297 158.741 -21.008 133.541C-59.7529 113.712 -101.839 81.1097 -143.995 28.7228C-102.797 69.9762 -63.0454 97.8009 -26.8114 116.345L-26.8184 116.324ZM108.519 151.563C111.014 151.565 113.404 151.53 115.689 151.458C117.118 154.374 118.61 157.235 120.123 160.054C117.619 160.38 115.017 160.691 112.303 160.945C111.009 157.871 109.743 154.741 108.54 151.557L108.519 151.563ZM121.546 151.187C123.788 151.059 125.926 150.895 127.93 150.715C129.508 153.165 131.108 155.574 132.756 157.956C130.547 158.398 128.219 158.832 125.736 159.221C124.306 156.585 122.905 153.893 121.546 151.187ZM136.117 162.735C137.864 165.167 139.646 167.564 141.457 169.941C138.916 170.721 136.192 171.511 133.307 172.272C131.674 169.618 130.068 166.944 128.512 164.208C131.207 163.752 133.746 163.251 136.124 162.756L136.117 162.735ZM141.774 161.435C144.146 160.849 146.278 160.28 148.185 159.736C150.053 161.723 151.929 163.696 153.846 165.657C151.755 166.456 149.418 167.322 146.87 168.185C145.157 165.963 143.451 163.727 141.788 161.443L141.774 161.435ZM157.955 169.804C159.929 171.758 161.924 173.67 163.926 175.569C161.567 176.721 158.869 177.979 155.883 179.282C154.023 177.107 152.205 174.883 150.394 172.645C153.216 171.661 155.751 170.686 157.955 169.804ZM456.344 330.157C457.491 329.783 458.639 329.374 459.793 328.986C460.817 329.51 461.827 330.062 462.851 330.586C461.648 330.757 460.46 330.935 459.25 331.085C458.281 330.764 457.32 330.464 456.351 330.143L456.344 330.157ZM482.653 332.087C483.977 333.097 485.273 334.093 486.584 335.095C485.332 335.119 484.081 335.108 482.823 335.11C481.497 334.414 480.179 333.705 478.839 333.002C480.106 332.706 481.379 332.397 482.653 332.087ZM499.643 338.633C500.635 338.285 501.832 337.884 503.204 337.45C504.842 339.232 506.416 341.033 508.004 342.842C506.913 343.071 506.055 343.26 505.421 343.426C503.516 341.821 501.59 340.224 499.636 338.647L499.643 338.633ZM508.905 335.789C510.65 335.319 512.543 334.837 514.598 334.351C516.142 336.557 517.651 338.762 519.131 341.023C517.317 341.247 515.643 341.474 514.152 341.725C512.431 339.726 510.682 337.747 508.905 335.789ZM522.358 346.029C523.642 348.085 524.885 350.154 526.12 352.237C524.876 352.212 523.744 352.209 522.683 352.208C521.201 350.296 519.705 348.411 518.166 346.54C519.481 346.357 520.86 346.189 522.358 346.029ZM528.286 345.48C530.093 345.339 531.998 345.213 534.009 345.124C535.2 347.639 536.377 350.181 537.498 352.764C535.692 352.627 534.019 352.54 532.431 352.461C531.085 350.111 529.71 347.782 528.286 345.48ZM539.837 344.909C541.946 344.869 544.181 344.86 546.472 344.879C547.535 347.853 548.584 350.853 549.576 353.93C547.475 353.677 545.459 353.466 543.541 353.271C542.344 350.456 541.104 347.655 539.837 344.909ZM551.317 359.522C552.128 362.227 552.917 364.973 553.672 367.753C551.959 367.296 550.33 366.882 548.757 366.496C547.826 363.922 546.852 361.397 545.851 358.892C547.614 359.078 549.434 359.293 551.331 359.529L551.317 359.522ZM561.112 375.318C593.14 384.37 644.792 402.295 711.985 436.684C739.999 451.022 770.72 468.23 803.839 488.85C718.737 452.234 653.572 423.566 608.741 403.627C589.791 395.204 574.503 388.341 562.85 383.094C562.299 380.47 561.726 377.887 561.105 375.332L561.112 375.318ZM676.443 352.834C625.466 326.744 579.908 322.232 547.122 324.275C546.096 324.344 545.09 324.406 544.092 324.489C542.616 321.147 541.111 317.861 539.55 314.65C540.732 314.451 541.921 314.273 543.145 314.095C576.821 309.275 622.531 310.964 672.302 336.437C711.804 356.654 753.942 391.922 794.615 451.047C754.233 402.801 713.897 372.003 676.457 352.842L676.443 352.834ZM538.473 324.987C535.576 325.286 532.784 325.623 530.125 326.01C528.507 323.119 526.832 320.269 525.143 317.482C527.978 316.819 530.961 316.179 534.071 315.603C535.576 318.68 537.06 321.799 538.473 324.987ZM522.169 312.675C520.388 309.859 518.565 307.091 516.714 304.378C519.86 303.349 523.182 302.358 526.624 301.41C528.305 304.421 529.958 307.486 531.561 310.614C528.276 311.257 525.145 311.944 522.155 312.668L522.169 312.675ZM516.729 314.068C513.633 314.895 510.726 315.766 508.037 316.627C506.15 314.263 504.248 311.926 502.31 309.624C505.148 308.472 508.203 307.31 511.463 306.164C513.251 308.757 515.005 311.385 516.729 314.068ZM160.594 150.847C160.376 150.858 160.144 150.861 159.926 150.872C159.527 150.546 159.128 150.219 158.707 149.899C158.763 149.928 158.819 149.921 158.883 149.936C159.458 150.231 160.026 150.539 160.594 150.847ZM142.477 143.287C142.019 143.385 141.534 143.469 141.028 143.559C139.664 141.935 138.3 140.311 136.979 138.673C137.07 138.668 137.147 138.655 137.239 138.649C138.947 140.188 140.705 141.734 142.484 143.273L142.477 143.287ZM126.274 133.474C125.501 133.463 124.686 133.43 123.828 133.411C122.907 131.751 122.008 130.085 121.122 128.391C121.747 128.518 122.316 128.617 122.864 128.723C123.982 130.309 125.114 131.902 126.274 133.474ZM117.567 133.09C116.175 133.007 114.714 132.888 113.203 132.761C112.305 130.572 111.429 128.341 110.595 126.096C111.936 126.416 113.207 126.699 114.415 126.968C115.447 129.034 116.5 131.058 117.588 133.083L117.567 133.09ZM98.2748 105.792C97.1804 105.302 96.0578 104.797 94.8792 104.264C94.6383 103.075 94.4184 101.879 94.1916 100.661C95.4039 101.544 96.5249 102.397 97.562 103.173C97.7903 104.041 98.0325 104.917 98.2748 105.792ZM-23.4037 138.222C27.5735 164.313 73.1313 168.824 105.917 166.782C106.943 166.713 107.949 166.651 108.947 166.568C110.423 169.91 111.928 173.196 113.489 176.407C112.307 176.606 111.118 176.784 109.894 176.962C76.2184 181.782 30.508 180.093 -19.2628 154.62C-58.7652 134.403 -100.903 99.135 -141.576 40.0101C-101.194 88.2554 -60.8581 119.053 -23.4178 138.215L-23.4037 138.222ZM114.566 166.07C117.463 165.77 120.255 165.434 122.914 165.047C124.532 167.938 126.207 170.787 127.896 173.574C125.061 174.238 122.078 174.878 118.968 175.454C117.463 172.377 115.979 169.258 114.566 166.07ZM130.87 178.382C132.651 181.198 134.474 183.966 136.325 186.679C133.179 187.707 129.857 188.699 126.415 189.646C124.734 186.636 123.081 183.571 121.478 180.443C124.763 179.8 127.894 179.113 130.884 178.389L130.87 178.382ZM136.31 176.989C139.413 176.148 142.313 175.29 145.002 174.429C146.89 176.794 148.792 179.13 150.715 181.426C147.877 182.577 144.822 183.74 141.562 184.885C139.774 182.292 138.021 179.665 136.296 176.982L136.31 176.989ZM492.445 340.21C492.663 340.199 492.895 340.195 493.113 340.185C493.512 340.511 493.911 340.838 494.332 341.158C494.276 341.129 494.22 341.135 494.156 341.121C493.581 340.826 493.013 340.518 492.445 340.21ZM510.562 347.77C511.02 347.672 511.505 347.588 512.012 347.498C513.375 349.122 514.739 350.746 516.061 352.384C515.969 352.389 515.892 352.402 515.8 352.408C514.092 350.869 512.334 349.323 510.555 347.783L510.562 347.77ZM526.765 357.583C527.538 357.594 528.354 357.627 529.211 357.646C530.132 359.306 531.031 360.972 531.917 362.666C531.292 362.538 530.723 362.439 530.175 362.334C529.057 360.748 527.925 359.155 526.765 357.583ZM535.473 357.967C536.864 358.05 538.326 358.169 539.836 358.295C540.734 360.485 541.61 362.716 542.444 364.96C541.103 364.641 539.832 364.357 538.624 364.089C537.592 362.023 536.539 359.999 535.452 357.974L535.473 357.967ZM554.764 385.265C555.859 385.755 556.981 386.259 558.16 386.793C558.401 387.982 558.621 389.178 558.848 390.395C557.635 389.513 556.514 388.659 555.477 387.884C555.249 387.016 555.007 386.14 554.764 385.265ZM537.439 298.749C573.061 290.923 620.814 289.795 671.406 315.67C711.399 336.139 753.282 373.6 792.244 438.386C753.264 384.392 712.924 351.215 674.74 331.673C623.005 305.195 575.347 303.785 540.692 309.03C539.468 309.208 538.265 309.413 537.069 309.605C535.41 306.344 533.723 303.139 531.979 300.009C533.766 299.561 535.582 299.127 537.446 298.735L537.439 298.749ZM368.232 169.821C382.146 174.076 393.514 178.426 401.387 181.721C405.323 183.369 408.375 184.739 410.452 185.697C411.483 186.172 412.276 186.56 412.802 186.812C413.068 186.949 413.265 187.049 413.391 187.114C413.517 187.178 413.574 187.207 413.574 187.207L414.786 184.839L413.644 187.243L414.374 185.677L413.615 187.228C414.976 187.925 445.977 204.001 479.458 238.438C494.575 254.005 510.203 273.31 523.86 296.641C520.243 297.656 516.78 298.714 513.507 299.818C498.289 278.363 481.348 260.272 465.208 245.528C429.974 213.374 398.468 197.04 396.469 196L396.371 195.949C396.273 195.899 364.639 179.884 320.191 167.359C301.684 162.151 280.947 157.567 259.329 154.979C260.053 154.948 260.784 154.903 261.522 154.879C302.334 153.239 340.397 161.325 368.239 169.842L368.232 169.821ZM117.185 120.277C117.646 121.002 118.142 121.727 118.617 122.46C118.427 122.415 118.217 122.377 118.013 122.326C117.664 121.623 117.344 120.9 117.003 120.183C117.059 120.212 117.129 120.248 117.171 120.269L117.185 120.277ZM71.0255 63.7437C72.2555 65.4218 73.3944 67.0358 74.4772 68.6211C60.8921 56.4952 41.7136 42.293 15.6499 28.9536C-23.6281 8.85115 -78.4842 -9.2451 -153.052 -15.2521C-80.5224 -20.8965 -28.9971 -8.01777 7.22275 10.5196C38.8696 26.7164 58.8928 47.258 71.0326 63.7299L71.0255 63.7437ZM115.565 192.342C79.9432 200.168 32.1894 201.296 -18.4021 175.421C-58.3955 154.952 -100.264 117.498 -139.226 52.7124C-100.239 106.693 -59.9061 139.883 -21.7363 159.418C29.9983 185.896 77.657 187.306 112.312 182.061C113.536 181.884 114.739 181.678 115.934 181.486C117.593 184.747 119.281 187.952 121.025 191.082C119.238 191.53 117.429 191.95 115.558 192.356L115.565 192.342ZM284.772 321.27C270.858 317.015 259.49 312.665 251.617 309.37C247.68 307.722 244.629 306.352 242.552 305.394C241.521 304.919 240.728 304.531 240.202 304.279C239.935 304.143 239.739 304.042 239.613 303.978C239.487 303.913 239.43 303.884 239.43 303.884L239.374 303.855C238.014 303.159 207.013 287.083 173.532 252.646C158.415 237.079 142.786 217.773 129.129 194.443C132.747 193.428 136.209 192.369 139.483 191.266C154.701 212.721 171.642 230.812 187.782 245.556C223.016 277.71 254.522 294.044 256.52 295.084L256.605 295.128C256.731 295.192 288.35 311.2 332.799 323.725C351.306 328.933 372.043 333.517 393.661 336.105C392.937 336.136 392.206 336.181 391.467 336.205C350.656 337.845 312.593 329.759 284.751 321.242L284.772 321.27ZM535.819 370.815C535.358 370.089 534.862 369.364 534.387 368.631C534.577 368.676 534.787 368.714 534.991 368.766C535.339 369.468 535.66 370.191 536.001 370.908C535.945 370.879 535.875 370.843 535.833 370.822L535.819 370.815ZM581.978 427.347C580.748 425.669 579.609 424.055 578.534 422.456C592.119 434.582 611.297 448.784 637.361 462.124C676.639 482.226 731.495 500.322 806.063 506.329C733.533 511.974 682.008 499.095 645.788 480.558C614.141 464.361 594.118 443.819 581.978 427.347Z" fill="url(#paint0_linear_4471_27297)"/>
<path opacity="0.1" d="M1570.18 828.727C1570.18 828.727 1570.07 828.703 1570 828.679L1570.64 826.906C1570.49 826.847 1570.34 826.788 1570.2 826.74L1571.11 825.191C1570.89 825.062 1570.67 824.932 1570.46 824.79L1571.52 823.558C1571.27 823.323 1571.01 823.111 1570.75 822.876L1571.86 821.971C1571.61 821.642 1571.34 821.325 1571.08 820.997L1572.12 820.395C1571.88 819.984 1571.63 819.574 1571.38 819.164L1572.28 818.783C1572.08 818.303 1571.87 817.834 1571.66 817.354L1572.39 817.148C1572.23 816.621 1572.05 816.094 1571.9 815.568L1572.45 815.466C1572.33 814.904 1572.21 814.343 1572.09 813.781L1572.49 813.737C1557.81 698.552 1521.17 627.752 1478.2 584.783C1434.03 540.604 1383.33 526.068 1343.84 522.623C1341.91 522.461 1340.03 522.322 1338.15 522.206C1331.92 493.229 1322.19 467.832 1311.71 446.613C1288.9 400.403 1262.6 373.803 1261.16 372.358L1261.1 372.3C1260.98 372.182 1234.36 345.791 1191.54 321.191C1170.13 308.897 1144.66 297.048 1116.43 289.167C1105.8 286.21 1094.77 283.824 1083.43 282.172C1075.63 279.488 1067.69 277.107 1059.64 275.146C1052.3 271.588 1044.9 268.322 1037.48 265.441C1030.57 260.671 1023.75 256.193 1017.05 252.054C1010.93 245.699 1005.07 239.579 999.578 233.811L999.179 233.412C997.078 229.708 995.048 226.028 993.17 222.407L992.733 221.552L991.878 221.138L991.855 221.114C991.644 221.02 990.66 220.547 988.925 219.626C988.068 216.747 987.269 213.856 986.552 210.978L986.349 210.147L985.714 209.559C985.714 209.559 983.859 207.843 980.183 204.493C980.022 202.798 979.884 201.103 979.769 199.408L979.73 198.765L979.424 198.202C979.424 198.202 977.37 194.545 972.906 188.036C972.917 187.931 972.904 187.825 972.915 187.72L972.937 187.3L972.829 186.89C972.793 186.738 970.951 179.063 965.167 166.447C964.268 160.132 962.44 150.868 958.721 139.665C951.662 118.501 937.778 90.533 910.566 63.3207C876.351 29.1057 821.134 -3.8474 732.296 -20.8746L731.288 -15.3068C731.288 -15.3068 731.404 -15.2828 731.475 -15.259L730.83 -13.4866C730.982 -13.4273 731.135 -13.368 731.275 -13.3205L730.361 -11.7716C730.583 -11.6418 730.806 -11.512 731.017 -11.3706L729.949 -10.138C730.208 -9.90288 730.466 -9.69113 730.724 -9.45601L729.607 -8.55087C729.866 -8.22227 730.137 -7.90529 730.396 -7.57669L729.347 -6.97493C729.595 -6.5646 729.843 -6.15424 730.09 -5.74391L729.193 -5.36335C729.394 -4.88317 729.607 -4.41462 729.808 -3.93444L729.085 -3.7281C729.24 -3.20145 729.418 -2.67465 729.573 -2.148L729.024 -2.04589C729.144 -1.48438 729.264 -0.922863 729.384 -0.361346L728.987 -0.316844C743.614 114.867 780.264 185.68 823.232 228.648C867.411 272.827 918.109 287.364 957.598 290.808C959.527 290.971 961.409 291.11 963.29 291.225C969.527 320.191 979.261 345.588 989.732 366.818C1012.54 413.028 1038.84 439.628 1040.28 441.073L1040.33 441.12C1040.46 441.249 1067.08 467.64 1109.89 492.229C1131.29 504.523 1156.76 516.372 1185 524.252C1195.63 527.209 1206.65 529.607 1218 531.248C1225.8 533.932 1233.73 536.313 1241.78 538.274C1249.13 541.832 1256.53 545.098 1263.94 547.978C1270.85 552.749 1277.68 557.227 1284.37 561.365C1290.49 567.72 1296.36 573.841 1301.85 579.608L1302.25 580.008C1304.35 583.712 1306.38 587.392 1308.26 591.013L1308.69 591.868L1309.56 592.294L1309.58 592.317C1309.79 592.412 1310.78 592.884 1312.51 593.805C1313.37 596.685 1314.17 599.575 1314.89 602.453L1315.09 603.284L1315.72 603.872C1315.72 603.872 1317.58 605.588 1321.25 608.939C1321.42 610.634 1321.55 612.329 1321.67 614.024L1321.72 614.655L1322.03 615.217C1322.03 615.217 1324.08 618.874 1328.54 625.384C1328.53 625.489 1328.53 625.606 1328.53 625.699L1328.51 626.12L1328.62 626.529C1328.66 626.682 1330.5 634.357 1336.28 646.973C1337.18 653.288 1339.01 662.552 1342.73 673.754C1349.79 694.919 1363.67 722.887 1390.88 750.099C1425.1 784.314 1480.32 817.267 1569.15 834.294L1570.16 828.727L1570.18 828.727ZM1341.8 645.403C1341.67 644.456 1341.57 643.591 1341.48 642.807C1351.3 655.294 1365.23 671.508 1384.14 690.413C1419.7 725.979 1472.86 771.002 1549.25 818.48C1477.14 788.623 1428.72 753.195 1396.41 720.884C1370.4 694.87 1354.82 670.877 1345.75 653.417C1344.26 650.558 1342.96 647.886 1341.8 645.379L1341.8 645.403ZM1326.18 601.593C1327.07 602.136 1328.01 602.702 1328.97 603.291C1329.01 604.986 1329.04 606.68 1329.04 608.386C1328.21 607.622 1327.42 606.905 1326.7 606.246C1326.54 604.692 1326.38 603.137 1326.18 601.593ZM1068.44 429.978L1068.38 429.919C1066.95 428.485 1040.94 402.203 1016.39 359.15C1005.34 339.786 994.619 317.023 986.509 291.623C990.376 291.493 993.997 291.279 997.384 290.994C1007.79 315.391 1020.46 337.638 1032.99 356.765C1059.98 397.904 1086.34 424.55 1088.42 426.63L1088.54 426.748C1088.61 426.818 1115.09 453.045 1153.39 482.352C1172.02 496.582 1193.42 511.528 1215.96 524.565C1211.81 523.058 1207.68 521.481 1203.6 519.799C1165.63 504.188 1131.79 481.706 1107.47 463.133C1095.3 453.846 1085.54 445.543 1078.81 439.558C1075.45 436.571 1072.83 434.162 1071.08 432.504C1070.2 431.67 1069.54 431.035 1069.08 430.6C1068.86 430.377 1068.7 430.213 1068.59 430.107C1068.48 430.001 1068.43 429.942 1068.43 429.942L1068.44 429.978ZM959.696 168.087C959.83 169.034 959.929 169.9 960.015 170.683C950.201 158.196 936.264 141.983 917.371 123.089C881.805 87.5227 828.647 42.4995 752.26 -4.9781C824.367 24.879 872.785 60.3064 905.097 92.6181C931.11 118.632 946.69 142.625 955.761 160.085C957.249 162.944 958.549 165.615 959.708 168.122L959.696 168.087ZM975.317 211.897C974.426 211.354 973.488 210.788 972.526 210.199C972.482 208.504 972.461 206.81 972.451 205.104C973.285 205.868 974.072 206.585 974.8 207.244C974.961 208.799 975.121 210.353 975.317 211.897ZM1235.03 381.514L1233.09 383.548L1233.12 383.571C1234.55 385.005 1260.55 411.287 1285.11 454.34C1296.15 473.704 1306.88 496.467 1314.99 521.867C1311.12 521.997 1307.5 522.211 1304.11 522.496C1293.71 498.099 1281.03 475.852 1268.51 456.725C1241.52 415.586 1215.15 388.94 1213.07 386.86L1212.94 386.731C1212.88 386.672 1186.41 360.434 1148.1 331.138C1129.48 316.908 1108.07 301.962 1085.53 288.925C1089.69 290.432 1093.82 292.009 1097.9 293.691C1135.86 309.302 1169.71 331.784 1194.02 350.357C1206.19 359.644 1215.96 367.947 1222.69 373.932C1226.05 376.919 1228.66 379.328 1230.41 380.986C1231.3 381.82 1231.95 382.455 1232.41 382.89C1232.64 383.113 1232.8 383.277 1232.91 383.383C1233.01 383.489 1233.07 383.548 1233.07 383.548L1235.06 381.561L1235.03 381.514ZM1341.72 633.94C1341.99 632.025 1342.28 630.122 1342.51 628.219C1377.54 659.903 1446.93 722.134 1550.28 812.492C1475.28 765.688 1423.05 721.382 1388.1 686.427C1366.48 664.808 1351.47 646.777 1341.72 633.917L1341.72 633.94ZM1334.68 613.535C1334.72 611.315 1334.73 609.095 1334.7 606.887C1335.98 607.7 1337.32 608.549 1338.69 609.456C1338.52 611.839 1338.33 614.233 1338.1 616.651C1337.15 615.792 1336.24 614.958 1335.36 614.17C1335.14 613.947 1334.91 613.758 1334.68 613.558L1334.68 613.535ZM1092.51 422.774L1092.41 422.668C1090.52 420.776 1064.37 394.376 1037.72 353.707C1025.59 335.236 1013.4 313.821 1003.28 290.455C1007 290.055 1010.32 289.617 1013.19 289.166C1025.85 311.67 1040.25 332.794 1054.11 351.227C1083.05 389.724 1109.53 416.453 1112.38 419.309C1112.55 419.473 1112.63 419.555 1112.63 419.555C1112.66 419.591 1139.06 445.735 1175.12 477.378C1193.6 493.582 1214.61 511.214 1235.9 527.538C1234.72 527.45 1233.54 527.362 1232.36 527.25C1205.17 512.844 1178.97 494.868 1156.78 477.884C1137.78 463.348 1121.69 449.553 1110.36 439.406C1104.7 434.327 1100.21 430.166 1097.16 427.275C1095.63 425.817 1094.46 424.701 1093.67 423.925C1092.88 423.161 1092.48 422.762 1092.48 422.762L1092.51 422.774ZM959.748 179.55C959.479 181.465 959.197 183.368 958.962 185.271C923.932 153.587 854.543 91.3556 751.195 0.998416C826.2 47.7906 878.407 92.0959 913.362 127.051C934.981 148.671 949.991 166.701 959.737 179.561L959.748 179.55ZM918.773 156.654C935.06 171.245 948.177 183.084 958.171 192.125C957.871 194.939 957.606 197.719 957.4 200.487C928.186 181.034 882.155 146.32 825.874 90.0395C802.41 66.5754 777.16 39.3507 750.614 7.92403C824.151 72.2346 880.256 122.112 918.773 156.631L918.773 156.654ZM966.791 199.955C966.756 202.175 966.757 204.406 966.769 206.603C965.491 205.79 964.154 204.941 962.782 204.034C962.956 201.651 963.141 199.257 963.373 196.839C964.325 197.698 965.229 198.532 966.11 199.32C966.333 199.543 966.568 199.732 966.791 199.931L966.791 199.955ZM1210.95 388.729L1208.98 390.74L1208.99 390.752L1209.06 390.822C1210.96 392.714 1237.1 419.114 1263.76 459.783C1275.88 478.254 1288.07 499.669 1298.19 523.035C1294.48 523.435 1291.15 523.873 1288.28 524.324C1275.63 501.82 1261.22 480.696 1247.37 462.263C1218.42 423.766 1191.95 397.036 1189.09 394.181C1188.94 394.029 1188.86 393.946 1188.84 393.935C1188.84 393.935 1162.41 367.755 1126.35 336.112C1107.87 319.908 1086.87 302.276 1065.57 285.952C1066.75 286.04 1067.92 286.14 1069.11 286.24C1096.3 300.646 1122.5 318.622 1144.69 335.606C1163.69 350.142 1179.79 363.937 1191.12 374.084C1196.78 379.163 1201.26 383.324 1204.32 386.215C1205.84 387.673 1207.01 388.789 1207.81 389.565C1208.59 390.329 1208.99 390.728 1208.99 390.728L1210.98 388.741L1210.95 388.729ZM1345 579.673C1346.02 580.041 1347.02 580.397 1348.07 580.788C1378.13 592.055 1418.23 613.602 1459.47 654.844C1490.91 686.286 1523.02 729.206 1551.82 787.799C1521.97 742.076 1491.85 705.932 1463.39 677.475C1416.56 630.64 1374.27 604.571 1345.09 590.458C1345.12 586.836 1345.09 583.249 1345 579.696L1345 579.673ZM1459.4 681.437C1488.9 710.929 1520.25 748.808 1551.25 797.284C1526.04 767.687 1502.01 741.872 1479.6 719.453C1421.32 661.175 1373.88 625.846 1344.54 606.544C1344.74 603.215 1344.89 599.921 1344.99 596.65C1373.53 610.76 1414.3 636.33 1459.42 681.449L1459.4 681.437ZM1463.44 650.846C1420.92 608.324 1379.43 586.314 1348.54 574.937C1347.25 574.462 1346.02 574.046 1344.78 573.596C1344.6 569.797 1344.36 566.069 1344.07 562.363C1345 562.59 1345.91 562.829 1346.83 563.056C1379.41 571.603 1421.96 590.43 1463.21 631.671C1495.66 664.124 1527.31 710.488 1552.6 776.75C1524.67 721.971 1493.79 681.172 1463.44 650.823L1463.44 650.846ZM1339.02 571.671C1336.51 570.862 1334.1 570.124 1331.78 569.457C1331.3 566.066 1330.73 562.71 1330.13 559.388C1332.75 559.87 1335.46 560.399 1338.27 561.022C1338.57 564.529 1338.82 568.083 1338.99 571.671L1339.02 571.671ZM1325.82 567.835C1323.52 567.238 1321.32 566.712 1319.25 566.244C1318.47 563.272 1317.64 560.335 1316.76 557.409C1319.12 557.679 1321.6 557.997 1324.22 558.408C1324.8 561.52 1325.33 564.678 1325.82 567.835ZM1314.94 551.522C1313.98 548.513 1312.97 545.528 1311.92 542.555C1314.73 542.594 1317.72 542.68 1320.86 542.85C1321.64 546.044 1322.38 549.249 1323.06 552.501C1320.2 552.088 1317.49 551.769 1314.94 551.498L1314.94 551.522ZM1308.84 550.997C1306.27 550.819 1303.94 550.701 1301.85 550.631C1300.62 548.03 1299.38 545.441 1298.09 542.852C1300.44 542.713 1303.08 542.611 1305.92 542.568C1306.91 545.354 1307.9 548.152 1308.83 550.985L1308.84 550.997ZM1290.68 550.756C1289.17 548.504 1287.64 546.252 1286.1 544.012C1287.48 543.809 1289.47 543.551 1292.01 543.32C1293.22 545.722 1294.42 548.147 1295.59 550.573C1293.25 550.606 1291.59 550.691 1290.68 550.756ZM1116.59 415.57C1116.59 415.57 1116.51 415.487 1116.36 415.335C1113.63 412.609 1087.31 386.032 1058.61 347.852C1045.23 330.052 1031.36 309.726 1019.1 288.147C1022.67 287.466 1024.89 286.917 1025.57 286.758C1026.23 286.679 1026.89 286.636 1027.54 286.57C1042.43 306.808 1058.56 326.539 1073.73 344.174C1104.32 379.712 1131.01 406.653 1135.92 411.564C1136.45 412.093 1136.72 412.363 1136.72 412.363C1136.72 412.363 1137.73 413.374 1139.62 415.242C1145.29 420.87 1158.84 434.324 1176.38 451.867C1197.93 473.415 1225.51 501.132 1251.96 528.095C1249.92 528.095 1247.87 528.072 1245.85 528.026C1222.49 510.498 1199.12 490.96 1178.83 473.157C1160.86 457.4 1145.3 443.001 1134.24 432.54C1128.7 427.31 1124.3 423.067 1121.27 420.129C1119.75 418.66 1118.59 417.52 1117.8 416.756C1117.03 415.981 1116.61 415.57 1116.61 415.57L1116.59 415.57ZM1010.78 262.746C1012.29 264.998 1013.82 267.249 1015.36 269.49C1013.99 269.692 1011.99 269.95 1009.46 270.181C1008.24 267.779 1007.04 265.354 1005.87 262.929C1008.21 262.895 1009.87 262.811 1010.78 262.746ZM1018.36 274.764C1018.61 274.777 1018.83 274.79 1019.07 274.803C1020.62 276.997 1022.17 279.179 1023.75 281.361C1022.71 281.624 1020.08 282.229 1016.15 282.92C1014.82 280.493 1013.51 278.044 1012.22 275.595C1015.47 275.239 1017.58 274.889 1018.37 274.753L1018.36 274.764ZM1026.31 275.299C1028.32 275.474 1030.34 275.684 1032.34 275.917C1033.72 277.315 1035.08 278.725 1036.47 280.135C1034.36 280.263 1032.26 280.415 1030.15 280.602C1028.86 278.831 1027.57 277.071 1026.31 275.299ZM1180.35 447.881C1156.94 424.475 1140.66 408.354 1140.66 408.354C1140.66 408.354 1140.39 408.084 1139.87 407.567C1135.03 402.726 1108.41 375.879 1077.98 340.493C1063.57 323.763 1048.31 305.088 1034.1 285.975C1036.66 285.791 1039.21 285.642 1041.77 285.551C1069.36 313.723 1098.53 343.038 1121.1 365.609C1144.51 389.014 1160.79 405.136 1160.79 405.136C1160.79 405.136 1161.05 405.394 1161.57 405.911C1166.41 410.752 1193.02 437.599 1223.46 472.985C1237.87 489.715 1253.12 508.39 1267.33 527.503C1264.78 527.687 1262.23 527.836 1259.67 527.927C1232.08 499.755 1202.9 470.44 1180.33 447.869L1180.35 447.881ZM1186.85 395.933L1184.88 397.944C1184.88 397.944 1184.95 398.014 1185.1 398.167C1187.83 400.893 1214.15 427.469 1242.84 465.638C1256.22 483.437 1270.09 503.764 1282.35 525.343C1278.78 526.024 1276.56 526.572 1275.88 526.732C1275.22 526.81 1274.56 526.853 1273.91 526.92C1259.02 506.682 1242.89 486.95 1227.72 469.316C1197.13 433.778 1170.44 406.837 1165.53 401.926C1165.01 401.409 1164.74 401.138 1164.73 401.127C1164.73 401.127 1163.72 400.116 1161.83 398.248C1156.16 392.619 1142.61 379.166 1125.07 361.623C1103.52 340.074 1075.94 312.358 1049.49 285.395C1051.53 285.395 1053.58 285.418 1055.6 285.464C1078.96 302.992 1102.33 322.53 1122.62 340.332C1140.59 356.089 1156.15 370.489 1167.21 380.95C1172.75 386.18 1177.15 390.423 1180.18 393.361C1181.7 394.83 1182.86 395.969 1183.65 396.733C1184.44 397.497 1184.83 397.92 1184.83 397.92L1186.82 395.933L1186.85 395.933ZM1271.28 532.888C1272.56 534.659 1273.86 536.419 1275.12 538.19C1273.11 538.016 1271.08 537.806 1269.08 537.573C1267.71 536.175 1266.35 534.765 1264.96 533.355C1267.06 533.226 1269.16 533.075 1271.28 532.888ZM1277.69 532.14C1278.73 531.877 1281.35 531.273 1285.29 530.582C1286.62 533.008 1287.93 535.457 1289.22 537.906C1285.97 538.262 1283.86 538.613 1283.07 538.749C1282.83 538.747 1282.6 538.723 1282.35 538.71C1280.81 536.516 1279.26 534.334 1277.68 532.152L1277.69 532.14ZM1295.3 537.368C1293.96 534.766 1292.58 532.2 1291.18 529.645C1293.93 529.251 1297.04 528.86 1300.47 528.516C1301.61 531.315 1302.73 534.126 1303.82 536.959C1300.66 537.035 1297.8 537.195 1295.3 537.368ZM1047.86 279.766C1046.58 279.77 1045.3 279.81 1044.01 279.826C1043.16 278.968 1042.32 278.087 1041.46 277.23C1042.71 277.435 1043.98 277.653 1045.24 277.893C1046.11 278.529 1046.98 279.142 1047.84 279.777L1047.86 279.766ZM1022.07 269.317C1021.07 267.874 1020.09 266.455 1019.1 265.024C1020.37 265.405 1021.62 265.821 1022.88 266.225C1023.99 267.353 1025.08 268.492 1026.2 269.632C1024.83 269.519 1023.45 269.418 1022.07 269.317ZM1007.14 257.246C1006.03 257.275 1004.7 257.29 1003.18 257.282C1002.11 254.963 1001.12 252.644 1000.11 250.313C1001.28 250.436 1002.21 250.523 1002.9 250.562C1004.29 252.79 1005.7 255.018 1007.15 257.234L1007.14 257.246ZM996.915 257.107C995.01 257.015 992.953 256.886 990.732 256.71C989.899 253.995 989.101 251.291 988.35 248.541C990.245 248.903 991.999 249.216 993.578 249.447C994.655 252.012 995.768 254.565 996.915 257.107ZM986.739 242.468C986.117 239.988 985.543 237.507 984.98 235.016C986.221 235.443 987.356 235.812 988.421 236.156C989.287 238.557 990.177 240.933 991.113 243.311C989.733 243.069 988.294 242.792 986.739 242.468ZM980.608 241.102C978.748 240.66 976.794 240.17 974.746 239.609C974.368 236.698 974.013 233.763 973.727 230.805C975.496 231.528 977.147 232.156 978.716 232.749C979.304 235.545 979.927 238.329 980.597 241.09L980.608 241.102ZM968.825 237.94C966.695 237.298 964.447 236.584 962.153 235.823C962.053 232.493 961.975 229.139 961.98 225.727C964.006 226.662 965.963 227.525 967.825 228.342C968.111 231.557 968.445 234.772 968.825 237.94ZM956.428 233.84C955.41 233.472 954.403 233.116 953.361 232.725C923.293 221.458 883.201 199.911 841.959 158.669C810.517 127.227 778.403 84.3073 749.603 25.737C779.454 71.4603 809.567 107.592 838.036 136.062C884.87 182.896 927.161 208.965 956.333 223.078C956.307 226.701 956.338 230.288 956.428 233.84ZM962.039 219.558C962.104 216.579 962.204 213.565 962.351 210.528C963.922 211.542 965.423 212.485 966.877 213.381C966.975 216.267 967.131 219.119 967.322 221.959C965.612 221.202 963.855 220.398 962.027 219.546L962.039 219.558ZM956.886 206.969C956.683 210.298 956.538 213.592 956.439 216.863C927.897 202.753 887.129 177.183 842.01 132.064C812.518 102.573 781.169 64.6929 750.169 16.2174C775.373 45.8138 799.4 71.6297 821.818 94.0481C880.097 152.327 927.533 187.655 956.875 206.957L956.886 206.969ZM837.985 162.667C880.507 205.189 921.992 227.199 952.891 238.576C954.179 239.051 955.408 239.467 956.649 239.917C956.822 243.716 957.065 247.444 957.354 251.15C956.43 250.923 955.517 250.684 954.593 250.457C922.016 241.91 879.462 223.084 838.22 181.842C805.768 149.39 774.114 103.025 748.823 36.7628C776.773 91.5309 807.636 132.341 837.985 162.69L837.985 162.667ZM962.408 241.842C964.913 242.651 967.324 243.389 969.642 244.056C970.128 247.447 970.696 250.804 971.298 254.125C968.678 253.643 965.965 253.114 963.157 252.491C962.857 248.984 962.603 245.431 962.432 241.842L962.408 241.842ZM975.61 245.678C977.903 246.275 980.103 246.801 982.173 247.269C982.961 250.241 983.784 253.178 984.664 256.104C982.303 255.834 979.824 255.516 977.204 255.105C976.626 251.993 976.094 248.836 975.61 245.678ZM986.485 261.991C987.448 265 988.458 267.985 989.503 270.958C986.698 270.92 983.706 270.833 980.562 270.663C979.785 267.469 979.043 264.264 978.371 261.012C981.224 261.425 983.936 261.744 986.485 262.015L986.485 261.991ZM992.587 262.516C995.159 262.694 997.484 262.812 999.576 262.882C1000.81 265.483 1002.05 268.072 1003.34 270.661C1000.98 270.789 998.347 270.903 995.508 270.945C994.511 268.159 993.526 265.361 992.599 262.528L992.587 262.516ZM1006.11 276.157C1007.46 278.758 1008.84 281.325 1010.23 283.88C1007.49 284.273 1004.37 284.665 1000.95 285.008C999.789 282.221 998.687 279.399 997.596 276.565C1000.75 276.489 1003.61 276.33 1006.11 276.157ZM1253.56 533.759C1254.83 533.754 1256.12 533.715 1257.4 533.699C1258.26 534.556 1259.09 535.437 1259.95 536.295C1258.69 536.078 1257.44 535.872 1256.17 535.631C1255.31 534.995 1254.44 534.383 1253.57 533.747L1253.56 533.759ZM1279.35 544.208C1280.35 545.651 1281.32 547.07 1282.31 548.501C1281.05 548.12 1279.8 547.704 1278.53 547.3C1277.43 546.172 1276.34 545.032 1275.22 543.893C1276.59 544.006 1277.97 544.107 1279.35 544.208ZM1294.27 556.279C1295.38 556.25 1296.72 556.234 1298.24 556.243C1299.3 558.562 1300.29 560.881 1301.3 563.212C1300.13 563.089 1299.21 563.002 1298.52 562.963C1297.13 560.735 1295.71 558.507 1294.26 556.291L1294.27 556.279ZM1304.5 556.418C1306.4 556.51 1308.46 556.638 1310.68 556.814C1311.52 559.53 1312.31 562.233 1313.06 564.983C1311.17 564.622 1309.42 564.309 1307.84 564.078C1306.76 561.513 1305.65 558.96 1304.5 556.418ZM1314.68 571.056C1315.3 573.537 1315.87 576.017 1316.43 578.509C1315.19 578.082 1314.06 577.713 1312.99 577.368C1312.13 574.968 1311.24 572.591 1310.3 570.214C1311.68 570.455 1313.12 570.732 1314.68 571.056ZM1320.81 572.422C1322.67 572.865 1324.62 573.355 1326.67 573.916C1327.05 576.827 1327.4 579.762 1327.69 582.72C1325.92 581.997 1324.27 581.369 1322.7 580.776C1322.11 577.98 1321.49 575.195 1320.81 572.422ZM1332.59 575.584C1334.72 576.227 1336.97 576.941 1339.26 577.701C1339.36 581.032 1339.44 584.386 1339.43 587.797C1337.41 586.863 1335.45 585.999 1333.59 585.183C1333.3 581.968 1332.97 578.753 1332.59 575.584ZM1339.36 593.978C1339.3 596.957 1339.2 599.971 1339.05 603.008C1337.48 601.995 1335.98 601.052 1334.53 600.156C1334.43 597.269 1334.27 594.417 1334.08 591.577C1335.79 592.334 1337.55 593.138 1339.38 593.99L1339.36 593.978ZM1344.06 613.015C1373.28 632.468 1419.31 667.181 1475.59 723.462C1499.05 746.926 1524.3 774.151 1550.85 805.578C1477.31 741.267 1421.21 691.39 1382.68 656.859C1366.39 642.268 1353.27 630.429 1343.28 621.388C1343.58 618.574 1343.84 615.794 1344.05 613.026L1344.06 613.015ZM1467.17 627.732C1424.47 585.034 1380.2 565.765 1346.61 557.213C1345.56 556.95 1344.53 556.687 1343.5 556.448C1343.11 552.613 1342.66 548.825 1342.14 545.094C1343.39 545.277 1344.64 545.482 1345.93 545.7C1381.31 551.75 1426.65 568.232 1468.34 609.92C1501.43 643.007 1532.27 692.066 1553.88 764.617C1529.02 703.089 1498.54 659.104 1467.18 627.744L1467.17 627.732ZM1337.7 555.13C1334.69 554.494 1331.78 553.929 1328.99 553.457C1328.3 550.03 1327.54 546.626 1326.76 543.28C1329.82 543.53 1333.02 543.852 1336.33 544.279C1336.84 547.858 1337.32 551.471 1337.7 555.13ZM1325.33 537.488C1324.46 534.083 1323.53 530.713 1322.55 527.389C1326.05 527.373 1329.7 527.452 1333.47 527.613C1334.18 531.181 1334.84 534.795 1335.43 538.456C1331.93 538.039 1328.56 537.716 1325.32 537.476L1325.33 537.488ZM1319.42 537.128C1316.04 536.957 1312.84 536.893 1309.86 536.888C1308.73 533.902 1307.58 530.939 1306.39 528C1309.61 527.761 1313.06 527.581 1316.7 527.485C1317.65 530.668 1318.56 533.875 1319.42 537.128ZM1014.93 257.967C1014.7 257.907 1014.47 257.836 1014.25 257.776C1013.95 257.319 1013.66 256.861 1013.34 256.404C1013.39 256.451 1013.45 256.463 1013.5 256.498C1013.99 256.98 1014.46 257.473 1014.93 257.967ZM999.194 244.512C998.703 244.463 998.188 244.39 997.65 244.317C996.809 242.244 995.968 240.171 995.174 238.099C995.267 238.122 995.349 238.135 995.443 238.158C996.658 240.257 997.92 242.379 999.205 244.501L999.194 244.512ZM986.117 229.413C985.344 229.152 984.536 228.855 983.682 228.559C983.297 226.594 982.935 224.628 982.597 222.64C983.183 222.971 983.722 223.254 984.238 223.537C984.845 225.492 985.463 227.458 986.117 229.413ZM977.499 226.211C976.129 225.677 974.701 225.085 973.225 224.469C973.036 221.98 972.882 219.455 972.774 216.93C974.017 217.685 975.201 218.381 976.326 219.042C976.69 221.451 977.089 223.825 977.523 226.211L977.499 226.211ZM967.007 192.548C966.067 191.702 965.104 190.832 964.094 189.915C964.239 188.642 964.407 187.369 964.575 186.073C965.506 187.352 966.354 188.572 967.143 189.686C967.089 190.632 967.048 191.59 967.007 192.548ZM834.293 185.77C876.991 228.468 921.265 247.736 954.847 256.289C955.9 256.552 956.93 256.815 957.959 257.054C958.355 260.889 958.796 264.677 959.319 268.407C958.068 268.225 956.817 268.019 955.53 267.802C920.151 261.751 874.806 245.27 833.118 203.582C800.031 170.495 769.192 121.436 747.582 48.8843C772.438 110.412 802.921 154.398 834.281 185.758L834.293 185.77ZM963.762 258.372C966.768 259.008 969.681 259.573 972.476 260.044C973.161 263.471 973.916 266.876 974.706 270.222C971.643 269.971 968.44 269.65 965.131 269.222C964.62 265.644 964.145 262.031 963.762 258.372ZM976.129 276.014C977.001 279.419 977.931 282.789 978.907 286.113C975.414 286.128 971.756 286.05 967.993 285.888C967.284 282.321 966.621 278.707 966.028 275.046C969.536 275.463 972.903 275.785 976.14 276.025L976.129 276.014ZM982.043 276.374C985.432 276.533 988.623 276.609 991.602 276.614C992.729 279.6 993.879 282.562 995.063 285.49C991.84 285.729 988.394 285.908 984.749 286.005C983.796 282.821 982.891 279.615 982.031 276.362L982.043 276.374ZM1286.54 555.535C1286.76 555.595 1286.99 555.666 1287.21 555.726C1287.51 556.183 1287.8 556.64 1288.12 557.098C1288.07 557.051 1288.02 557.039 1287.96 557.003C1287.48 556.522 1287.01 556.028 1286.54 555.535ZM1302.27 568.989C1302.76 569.039 1303.27 569.112 1303.81 569.185C1304.65 571.258 1305.49 573.33 1306.29 575.403C1306.19 575.379 1306.11 575.367 1306.02 575.343C1304.8 573.245 1303.54 571.123 1302.26 569.001L1302.27 568.989ZM1315.34 584.088C1316.12 584.35 1316.92 584.646 1317.78 584.943C1318.16 586.908 1318.53 588.873 1318.86 590.861C1318.28 590.531 1317.74 590.248 1317.22 589.964C1316.62 588.01 1316 586.043 1315.34 584.088ZM1323.96 587.291C1325.33 587.824 1326.76 588.416 1328.24 589.032C1328.43 591.522 1328.58 594.047 1328.69 596.571C1327.44 595.816 1326.26 595.12 1325.14 594.46C1324.77 592.051 1324.37 589.677 1323.94 587.291L1323.96 587.291ZM1334.45 620.953C1335.39 621.8 1336.36 622.67 1337.37 623.587C1337.22 624.86 1337.05 626.132 1336.89 627.428C1335.96 626.15 1335.11 624.93 1334.32 623.815C1334.37 622.869 1334.41 621.911 1334.45 620.953ZM1345.19 528.438C1383.5 532.098 1431.81 546.411 1474.2 588.769C1507.69 622.267 1537.56 673.447 1555.62 751.131C1534.04 684.282 1504.32 637.905 1472.34 605.923C1429.01 562.59 1381.62 545.758 1345.12 539.818C1343.83 539.6 1342.55 539.418 1341.29 539.224C1340.69 535.412 1340.03 531.646 1339.3 527.938C1341.24 528.065 1343.2 528.216 1345.2 528.426L1345.19 528.438ZM1217.23 344.188C1229.82 352.963 1239.82 361.011 1246.65 366.868C1250.06 369.796 1252.68 372.159 1254.46 373.793C1255.34 374.604 1256.01 375.251 1256.45 375.674C1256.68 375.897 1256.84 376.062 1256.95 376.167C1257.05 376.273 1257.1 376.32 1257.1 376.32L1259.09 374.333L1257.16 376.379L1258.4 375.042L1257.13 376.355C1258.27 377.495 1284.17 403.672 1306.59 449.097C1316.71 469.624 1326.12 494.073 1332.24 521.928C1328.28 521.777 1324.46 521.721 1320.82 521.771C1312.51 495.294 1301.39 471.642 1289.98 451.61C1265.06 407.912 1238.74 381.312 1237.07 379.62L1236.99 379.538C1236.9 379.456 1210.35 353.135 1169.8 326.176C1152.91 314.959 1133.58 303.646 1112.71 294.054C1113.45 294.257 1114.2 294.448 1114.95 294.662C1156.46 306.215 1192.05 326.65 1217.23 344.212L1217.23 344.188ZM981.283 213.215C981.51 214.093 981.772 214.982 982.01 215.872C981.835 215.766 981.635 215.659 981.448 215.541C981.326 214.723 981.24 213.893 981.13 213.063C981.177 213.11 981.236 213.168 981.271 213.204L981.283 213.215ZM953.321 141.493C954.01 143.577 954.629 145.567 955.2 147.509C945.504 130.934 930.866 110.463 909.035 88.6323C876.136 55.7332 826.944 19.8107 754.03 -10.343C828.686 7.44661 876.231 37.0503 906.569 67.388C933.076 93.8953 946.5 121.008 953.332 141.482L953.321 141.493ZM956.222 285.087C917.912 281.427 869.6 267.114 827.219 224.756C793.72 191.258 763.863 140.09 745.811 62.405C767.401 129.243 797.104 175.631 829.075 207.602C872.407 250.935 919.799 267.767 956.299 273.707C957.586 273.924 958.86 274.107 960.123 274.301C960.729 278.113 961.381 281.879 962.114 285.587C960.174 285.459 958.221 285.297 956.211 285.099L956.222 285.087ZM1084.19 469.336C1071.6 460.562 1061.6 452.514 1054.77 446.657C1051.35 443.729 1048.73 441.365 1046.96 439.731C1046.08 438.92 1045.41 438.274 1044.96 437.851C1044.74 437.628 1044.57 437.463 1044.47 437.357C1044.36 437.252 1044.32 437.205 1044.32 437.205L1044.27 437.158C1043.13 436.018 1017.23 409.841 994.813 364.416C984.697 343.889 975.283 319.44 969.158 291.585C973.12 291.736 976.941 291.792 980.586 291.742C988.889 318.218 1000.02 341.871 1011.43 361.903C1036.35 405.601 1062.67 432.201 1064.34 433.892L1064.41 433.963C1064.51 434.069 1091.05 460.378 1131.61 487.337C1148.5 498.554 1167.83 509.867 1188.69 519.459C1187.95 519.256 1187.2 519.065 1186.45 518.851C1144.94 507.298 1109.36 486.863 1084.17 469.301L1084.19 469.336ZM1320.13 600.309C1319.9 599.432 1319.64 598.542 1319.4 597.653C1319.58 597.759 1319.78 597.865 1319.97 597.983C1320.09 598.802 1320.17 599.632 1320.28 600.462C1320.24 600.415 1320.18 600.356 1320.14 600.321L1320.13 600.309ZM1348.09 672.032C1347.4 669.948 1346.79 667.958 1346.23 666.004C1355.92 682.579 1370.56 703.05 1392.39 724.881C1425.29 757.78 1474.48 793.702 1547.4 823.856C1472.74 806.066 1425.2 776.463 1394.86 746.125C1368.35 719.618 1354.93 692.505 1348.09 672.032Z" fill="url(#paint1_linear_4471_27297)"/>
</g>
<defs>
<linearGradient id="paint0_linear_4471_27297" x1="-178.472" y1="-12.9353" x2="831.532" y2="503.985" gradientUnits="userSpaceOnUse">
<stop offset="0.14" stop-color="#FFF200"/>
<stop offset="0.26" stop-color="#F58220"/>
<stop offset="0.3" stop-color="#F58220"/>
<stop offset="0.37" stop-color="#08B798"/>
<stop offset="0.65" stop-color="#00B49D"/>
<stop offset="0.7" stop-color="#F58220"/>
<stop offset="0.75" stop-color="#F58220"/>
<stop offset="1" stop-color="#C6168D"/>
</linearGradient>
<linearGradient id="paint1_linear_4471_27297" x1="727.754" y1="-16.2378" x2="1573.73" y2="829.739" gradientUnits="userSpaceOnUse">
<stop offset="0.14" stop-color="#FFF200"/>
<stop offset="0.26" stop-color="#F58220"/>
<stop offset="0.3" stop-color="#F58220"/>
<stop offset="0.37" stop-color="#08B798"/>
<stop offset="0.65" stop-color="#00B49D"/>
<stop offset="0.7" stop-color="#F58220"/>
<stop offset="0.75" stop-color="#F58220"/>
<stop offset="1" stop-color="#C6168D"/>
</linearGradient>
</defs>
</svg>
